Music_DriftveilCity:
	channel_count 4
	channel 1, Music_DriftveilCity_Ch1
	channel 2, Music_DriftveilCity_Ch2
	channel 3, Music_DriftveilCity_Ch3
	channel 4, Music_DriftveilCity_Ch4

Music_DriftveilCity_Ch1:
	tempo $8D
	volume 7, 7
	stereo_panning TRUE, TRUE
        pitch_offset 1
	note_type 14, 0, 0
	rest 12
	octave 3
	note_type 12, 10, 7
	note G#, 2
Music_DriftveilCity_Ch1_loop:
        note_type 12, 10, 7
	note A#, 1
	rest 1
	note A#, 1
	rest 1
	note A#, 1
	rest 11
	octave 2
	note G#, 2
	note A#, 2
	octave 3
	note C#, 2
	note D#, 2
	octave 2
	note A#, 2
	octave 3
	note C#, 2
	note D#, 2
	note F_, 2
	note D#, 2
	octave 2
	note A#, 2
	octave 3
	note D#, 2
	note F_, 2
	note F#, 2
	note F#, 1
	note F_, 1
	note D#, 2
	note C#, 2
	octave 2
	note G#, 2
	note A#, 2
	octave 3
	note C#, 2
	note D#, 2
	octave 2
	note A#, 2
	octave 3
	note C#, 2
	note D#, 2
	note F_, 2
	note D#, 2
	octave 2
	note A#, 2
	octave 3
	note D#, 2
	note G#, 2
	note A#, 2
	note F#, 1
	note F_, 1
	note D#, 2
	note C#, 2
	volume_envelope 10, 2
	octave 2
	note G#, 2
	rest 2
	volume_envelope 10, 3
	octave 3
	note G#, 3
	rest 1
	volume_envelope 10, 2
	octave 2
	note F#, 2
	octave 3
	note F#, 2
	volume_envelope 10, 6
	note F#, 3
	rest 1
	volume_envelope 10, 2
	octave 2
	note G#, 2
	rest 2
	volume_envelope 10, 7
	octave 3
	note G#, 2
	octave 2
	note B_, 1
	note A#, 1
	volume_envelope 10, 2
	note F#, 2
	octave 3
	note F#, 2
	volume_envelope 10, 6
	note F#, 3
	rest 1
	octave 4
	note D_, 2
	rest 2
	note D_, 2
	rest 10
	octave 2
	note D#, 2
	note A#, 2
	note A_, 2
	note_type 8, 10, 7
	note G#, 1
	note A_, 1
	note G#, 1
	note F#, 3
	note C#, 3
	note_type 12, 10, 7
	note D#, 1
	note D#, 1
	octave 3
	note G#, 2
	note A#, 1
	rest 1
	note A#, 1
	rest 1
	note A#, 1
	rest 5
	octave 2
	note A#, 2
	octave 3
	note C#, 2
	note D_, 2
	note D#, 2
	rest 1
	note D#, 2
	rest 5
	octave 2
	note A#, 2
	octave 3
	note C#, 2
	octave 2
	note A#, 2
	octave 3
	note F#, 2
	rest 1
	note F#, 2
	rest 5
	octave 2
	note A#, 2
	octave 3
	note D#, 2
	octave 2
	note A#, 2
	octave 3
	note F#, 2
	rest 1
	note F#, 2
	octave 2
	note G#, 1
	note A#, 1
	note G#, 1
	octave 3
	note F#, 2
	rest 1
	note F#, 2
	octave 2
	note A#, 1
	octave 3
	note D_, 1
	octave 2
	note A#, 1
	octave 3
	note F#, 2
	rest 1
	note F#, 2
	rest 1
	note F#, 8
	rest 2
	note D#, 2
	rest 1
	note D#, 2
	rest 5
	octave 2
	note A#, 2
	note G#, 2
	note A#, 2
	octave 3
	note C#, 2
	rest 1
	note C#, 2
	rest 5
	octave 2
	note A#, 2
	note G#, 2
	note A#, 2
	note B_, 2
	rest 1
	note B_, 2
	note G#, 1
	note A#, 1
	note G#, 1
	note A#, 2
	rest 1
	note A#, 2
	note A_, 1
	note A#, 1
	octave 3
	note D_, 1
	note F_, 2
	rest 1
	note F_, 2
	rest 1
	note F_, 4
	note D#, 2
	note F_, 1
	note A_, 2
	rest 1
	note A#, 1
	rest 1
	note A#, 1
	rest 1
	note A#, 1
	rest 11
	note D#, 2
	note A#, 2
	note A_, 2
	note_type 8, 10, 7
	note G#, 1
	note A_, 1
	note G#, 1
	note F#, 3
	note C#, 3
	note_type 12, 10, 7
	note D#, 1
	note D#, 1
	octave 4
	note C#, 2
	note D#, 2
	rest 1
	note D_, 2
	rest 1
	note C#, 2
	rest 1
	note C_, 2
	rest 1
	octave 3
	note B_, 2
	rest 1
	note A#, 1
	octave 2
	note D#, 2
	note A#, 2
	note A_, 2
	note_type 8, 10, 7
	note G#, 1
	note A_, 1
	note G#, 1
	note F#, 3
	note C#, 3
	note_type 12, 10, 7
	note D#, 1
	note D#, 1
	octave 3
	note G#, 2
	sound_jump Music_DriftveilCity_Ch1_loop

Music_DriftveilCity_Ch2:
        pitch_offset 2
	duty_cycle 1
	vibrato 0, 3, 3
	octave 3
	note_type 12, 10, 7
	note D#, 2
	note A#, 2
	note A_, 2
	note_type 8, 10, 7
	note G#, 1
	note A_, 1
	volume_envelope 9, 7
	note G#, 1
	volume_envelope 10, 7
	note F#, 3
	volume_envelope 9, 7
	note C#, 3
	note_type 12, 10, 7
	note D#, 1
	volume_envelope 9, 7
	note D#, 1
	duty_cycle 0
	volume_envelope 10, 7
	octave 4
	note C#, 2
Music_DriftveilCity_Ch2_loop:
	note_type 11, 10, 7
	note D#, 1
	note_type 13, 10, 7
	rest 1
	note_type 12, 10, 7
	note D#, 1
	rest 1
	note D#, 2
	duty_cycle 3
	note C#, 2
	note D#, 1
	note D#, 1
	volume_envelope 9, 7
	octave 3
	note A#, 2
	volume_envelope 10, 7
	octave 4
	note C#, 2
	octave 3
	note A#, 2
	octave 4
	note D#, 6
	note F#, 2
	note F_, 2
	note F#, 2
	octave 3
	note A#, 2
	octave 4
	note C#, 2
	note D#, 3
	rest 1
	note C#, 2
	note D#, 2
	octave 3
	note A#, 3
	note G#, 1
	note A#, 2
	rest 2
	octave 4
	note D#, 6
	note F#, 2
	note F_, 2
	note F#, 2
	volume_envelope 9, 7
	note G#, 2
	volume_envelope 10, 7
	note A#, 2
	note D#, 3
	rest 1
	note C#, 2
	note D#, 2
	note F_, 2
	volume_envelope 9, 7
	note F#, 1
	note F_, 1
	volume_envelope 10, 7
	note D#, 3
	rest 1
	note G#, 3
	rest 1
	note G#, 2
	note A#, 2
	note F#, 2
	rest 2
	note D#, 2
	volume_envelope 9, 7
	note F#, 2
	volume_envelope 10, 7
	note G#, 3
	note D#, 1
	note G#, 2
	note A#, 2
	note F#, 2
	rest 2
	note D#, 2
	note F#, 2
	note F_, 2
	rest 2
	note F_, 2
	rest 4
	octave 3
	note A#, 1
	volume_envelope 9, 7
	note A#, 1
	volume_envelope 10, 7
	octave 4
	note C#, 2
	octave 3
	note A#, 2
	octave 4
	note C#, 2
	note D#, 12
	duty_cycle 0
	note C#, 2
	note D#, 1
	rest 1
	note D#, 1
	rest 1
	note D#, 1
	rest 5
	duty_cycle 3
	note D#, 2
	note C#, 2
	note F#, 2
	note D#, 2
	rest 2
	octave 3
	note A#, 2
	octave 4
	note C#, 2
	rest 2
	note D#, 2
	octave 3
	note A#, 1
	volume_envelope 9, 7
	note A#, 1
	volume_envelope 10, 7
	octave 4
	note C#, 2
	note F#, 4
	octave 3
	note A#, 2
	octave 4
	note C#, 2
	rest 2
	note D#, 1
	note D#, 1
	octave 3
	note A#, 2
	octave 4
	note C#, 2
	note D#, 4
	octave 3
	note A#, 2
	octave 4
	note C#, 2
	rest 2
	note F#, 2
	octave 3
	note A#, 2
	octave 4
	note C#, 1
	octave 3
	note A#, 1
	octave 4
	note C#, 2
	note D#, 8
	duty_cycle 0
	note D#, 2
	note F#, 2
	note D#, 2
	note A#, 4
	note F#, 2
	note D#, 2
	rest 2
	note F#, 2
	note F#, 2
	rest 2
	note F#, 2
	note D#, 2
	rest 2
	note F#, 4
	note C#, 2
	note D#, 2
	note C#, 2
	note G#, 3
	note F#, 1
	note G#, 2
	note A#, 2
	note F#, 2
	note F_, 2
	note D#, 2
	note F#, 2
	volume_envelope 10, 8
	note F_, 6
	volume_envelope 10, 7
	note F_, 8
	rest 2
	note D_, 1
	rest 1
	note D_, 1
	rest 1
	note D_, 1
	rest 5
	duty_cycle 3
	octave 3
	note A#, 2
	octave 4
	note C#, 2
	octave 3
	note A#, 2
	octave 4
	note C#, 2
	note D#, 9
	rest 5
	note D#, 2
	note A#, 2
	note A_, 2
	note G#, 4
	note G_, 2
	note F#, 3
	octave 3
	note A#, 1
	octave 4
	note C#, 2
	note D#, 9
	rest 3
	duty_cycle 0
	note C#, 2
	sound_jump Music_DriftveilCity_Ch2_loop

Music_DriftveilCity_Ch3:
	note_type 12, 0, 0
	rest 16
Music_DriftveilCity_Ch3_loop:
        note_type 12, 0, 0
	duty_cycle 6
	volume_envelope 1, 6
	octave 3
	note D#, 1
	rest 1
	note D#, 1
	rest 1
	note D#, 1
	rest 11
	octave 2
	note G#, 2
	rest 4
	note G#, 2
	note A#, 4
	note A#, 2
	octave 3
	note C#, 2
	note D#, 4
	rest 2
	note D#, 2
	octave 2
	note A#, 2
	note A#, 2
	octave 3
	note C#, 2
	rest 2
	octave 2
	note G#, 2
	rest 4
	note G#, 2
	note A#, 4
	note A#, 2
	octave 3
	note C#, 2
	note D#, 2
	rest 4
	note D#, 2
	octave 2
	note A#, 2
	rest 4
	octave 3
	note D#, 2
	octave 2
	note G#, 2
	rest 4
	note G#, 2
	octave 3
	note D#, 2
	rest 4
	note D#, 2
	octave 2
	note G#, 2
	rest 4
	note G#, 2
	octave 3
	note D#, 2
	rest 4
	note D#, 2
	octave 2
	note A#, 2
	rest 2
	note A#, 2
	rest 10
	octave 3
	note D#, 4
	rest 2
	note D#, 2
	octave 2
	note A#, 2
	note A#, 2
	octave 3
	note C#, 2
	octave 2
	note A#, 2
	octave 3
	note D#, 1
	rest 1
	note D#, 1
	rest 1
	note D#, 1
	rest 11
	note D#, 1
	rest 1
	note D#, 6
	rest 8
	note D#, 1
	rest 1
	note D#, 6
	rest 8
	octave 2
	note G#, 1
	rest 1
	note G#, 6
	note A#, 1
	rest 1
	note A#, 6
	octave 3
	note D#, 1
	rest 1
	note D#, 6
	rest 8
	note D#, 1
	rest 1
	note D#, 6
	rest 8
	note C#, 1
	rest 1
	note C#, 6
	rest 8
	octave 2
	note B_, 2
	octave 3
	note B_, 2
	rest 2
	octave 2
	note B_, 2
	note A#, 2
	octave 3
	note A#, 2
	rest 2
	octave 2
	note A#, 2
	note A_, 2
	note A_, 1
	rest 1
	octave 3
	note C_, 2
	note C_, 1
	rest 1
	note F_, 1
	note F_, 1
	note C_, 2
	note F_, 1
	note C_, 1
	note A_, 2
	note A#, 1
	rest 1
	note A#, 1
	rest 1
	octave 2
	note A#, 2
	rest 8
	note A#, 2
	octave 3
	note D#, 2
	rest 1
	note D#, 1
	rest 12
	note D#, 10
	octave 2
	note C#, 1
	note C#, 1
	note D#, 1
	note G#, 1
	note A#, 1
	note A#, 1
	octave 3
	note D#, 2
	rest 1
	note D#, 1
	rest 10
	note A#, 2
	sound_jump Music_DriftveilCity_Ch3_loop

Music_DriftveilCity_Ch4:
	drum_speed 12
	rest 16
        toggle_noise 2
Music_DriftveilCity_Ch4_loop:
	drum_note 2, 2
	drum_note 2, 2
	drum_note 9, 6
	drum_note 2, 2
	drum_note 9, 2
	drum_note 4, 2
	drum_note 4, 4
	drum_note 2, 2
	drum_note 4, 2
	drum_note 4, 4
	drum_note 2, 4
	drum_note 4, 4
	drum_note 2, 2
	drum_note 4, 2
	drum_note 4, 2
	drum_note 4, 2
	drum_note 2, 4
	drum_note 4, 4
	drum_note 2, 2
	drum_note 4, 2
	drum_note 4, 4
	drum_note 2, 4
	drum_note 4, 4
	drum_note 2, 2
	drum_note 4, 2
	drum_note 4, 2
	drum_note 4, 2
	drum_note 2, 4
	drum_note 4, 4
	drum_note 2, 2
	drum_note 4, 2
	drum_note 4, 4
	drum_note 2, 4
	drum_note 4, 4
	drum_note 2, 2
	drum_note 4, 2
	drum_note 4, 2
	drum_note 4, 2
	drum_note 2, 4
	drum_note 2, 2
	drum_note 4, 2
	drum_note 2, 4
	drum_note 4, 1
	drum_note 4, 1
	drum_note 4, 2
	drum_note 2, 4
	drum_note 4, 4
	drum_note 2, 2
	drum_note 4, 2
	drum_note 4, 2
	drum_note 4, 2
	drum_note 2, 4
	drum_note 2, 2
	drum_note 2, 2
	drum_note 2, 2
	drum_note 3, 1
	drum_note 2, 1
	drum_note 3, 1
	drum_note 2, 1
	drum_note 4, 2
	drum_note 9, 2
	drum_note 4, 2
	drum_note 9, 2
	drum_note 4, 2
	drum_note 2, 2
	drum_note 4, 1
	drum_note 2, 3
	drum_note 4, 2
	drum_note 2, 2
	drum_note 4, 2
	drum_note 4, 2
	drum_note 4, 2
	drum_note 2, 2
	drum_note 4, 4
	drum_note 4, 2
	drum_note 2, 1
	drum_note 4, 1
	drum_note 2, 2
	drum_note 9, 2
	drum_note 4, 2
	drum_note 2, 2
	drum_note 4, 1
	drum_note 2, 3
	drum_note 4, 2
	drum_note 2, 2
	drum_note 4, 2
	drum_note 4, 2
	drum_note 4, 2
	drum_note 2, 2
	drum_note 4, 1
	drum_note 2, 1
	drum_note 3, 1
	drum_note 2, 1
	drum_note 4, 2
	drum_note 2, 2
	drum_note 4, 2
	drum_note 9, 2
	drum_note 4, 2
	drum_note 2, 2
	drum_note 4, 1
	drum_note 2, 3
	drum_note 4, 2
	drum_note 2, 2
	drum_note 4, 2
	drum_note 4, 2
	drum_note 4, 2
	drum_note 2, 2
	drum_note 4, 4
	drum_note 9, 2
	drum_note 2, 1
	drum_note 4, 1
	drum_note 2, 2
	drum_note 9, 2
	drum_note 4, 2
	drum_note 2, 2
	drum_note 4, 1
	drum_note 2, 3
	drum_note 4, 2
	drum_note 2, 2
	drum_note 4, 2
	drum_note 4, 2
	drum_note 4, 2
	drum_note 2, 2
	drum_note 4, 4
	drum_note 4, 2
	drum_note 2, 1
	drum_note 4, 1
	drum_note 2, 2
	drum_note 2, 2
	drum_note 2, 2
	drum_note 9, 2
	drum_note 4, 1
	drum_note 4, 1
	drum_note 3, 1
	drum_note 2, 1
	drum_note 4, 2
	drum_note 9, 2
	drum_note 4, 2
	drum_note 9, 4
	drum_note 2, 2
	drum_note 4, 2
	drum_note 4, 2
	drum_note 4, 2
	drum_note 2, 2
	drum_note 2, 1
	drum_note 3, 1
	drum_note 4, 3
	drum_note 4, 1
	drum_note 2, 2
	drum_note 4, 2
	drum_note 4, 2
	drum_note 4, 2
	drum_note 2, 1
	drum_note 2, 1
	drum_note 2, 2
	drum_note 9, 2
	drum_note 4, 2
	drum_note 2, 1
	drum_note 4, 1
	drum_note 2, 2
	drum_note 4, 2
	drum_note 4, 2
	drum_note 2, 2
	drum_note 4, 1
	rest 1
	sound_jump Music_DriftveilCity_Ch4_loop

