Music_HumilauCity: ; ef2d0
	channel_count 4
	channel 1, Music_HumilauCity_Ch1
	channel 2, Music_HumilauCity_Ch2
	channel 3, Music_HumilauCity_Ch3
	channel 4, Music_HumilauCity_Ch4

Music_HumilauCity_Ch1: ; ef2d9
	tempo 160
	volume 7, 7
	stereo_panning FALSE, TRUE
Music_HumilauCity_Ch1_loop:
	vibrato 18, 4, 5 ; ef2e5
	duty_cycle $2
	note_type 6, 3, 4
	octave 4
	note B_, 1
	note F#, 1
	note C#, 1
	octave 3
	note G#, 1
	note D#, 1
	note A_, 1
	volume_envelope 4, 4
	octave 1
	note F#, 1
	note A_, 1
	octave 2
	note D#, 1
	note G#, 1
	octave 3
	volume_envelope 5, 4
	note C#, 1
	note F#, 1
	note B_, 1
	octave 4
	note E_, 1
	note A_, 1
	octave 5
	note D#, 1
	octave 3
	note_type 12, 10, 0
	note B_, 15
	volume_envelope 10, 7
	note B_, 6
	note_type 6, 6, 7
	note A_, 1
	octave 4
	volume_envelope 8, 7
	note C#, 1
	note_type 12, 10, 7
	note D#, 4
	note D_, 2
	note C#, 2
	octave 3
	note A#, 2
	volume_envelope 10, 0
	note B_, 16
	volume_envelope 10, 7
	note B_, 6
	octave 4
	note C#, 2
	octave 3
	note G#, 2
	note F_, 2
	note D_, 2
	note A#, 2
	volume_envelope 10, 0
	note B_, 15
	volume_envelope 10, 7
	note B_, 6
	note_type 6, 6, 7
	note A_, 1
	octave 4
	volume_envelope 8, 7
	note C#, 1
	note_type 12, 10, 7
	note D#, 4
	note D_, 2
	note C#, 2
	octave 3
	note A#, 2
	volume_envelope 10, 0
	note B_, 10
	volume_envelope 10, 7
	note B_, 4
	note A#, 1
	note B_, 1
	octave 4
	note C#, 1
	rest 1
	note C#, 1
	rest 1
	note C#, 1
	rest 1
	note C#, 1
	rest 3
	octave 3
	note A_, 6
;;;;;;;;;;;;;mark
	note G#, 2
	note E_, 1
	rest 1
	note F#, 2
	octave 2
	note B_, 1
	rest 1
	octave 3
	volume_envelope 10, 0
	note E_, 8
	volume_envelope 10, 7
	note E_, 4
	volume_envelope 6, 7
	vibrato 18, 15, 2
	note E_, 4
	volume_envelope 10, 7
	rest 2
	vibrato 18, 4, 5
	note D#, 2
	note F#, 2
	volume_envelope 10, 0
	note D#, 4
	volume_envelope 10, 7
	vibrato 18, 15, 2
	note D#, 6
	rest 2
	octave 2
	note B_, 2
	octave 3
	note C#, 2
	note D_, 4
	note C#, 2
	rest 2
	note F_, 2
	rest 2
	note F#, 4
	rest 2
	note G#, 2
	vibrato 18, 4, 5
	note E_, 1
	rest 1
	note F#, 2
	octave 2
	note B_, 1
	rest 1
	octave 3
	volume_envelope 10, 0
	note E_, 8
	volume_envelope 10, 7
	note E_, 4
	vibrato 18, 15, 2
	volume_envelope 6, 7
	note E_, 4
	rest 2
	vibrato 18, 4, 5
	volume_envelope 10, 7
	note D#, 2
	note F#, 2
	volume_envelope 10, 0
	note D#, 4
	volume_envelope 10, 7
	vibrato 18, 15, 2
	note D#, 6
	rest 2
	octave 2
	note B_, 2
	octave 3
	note C#, 2
	note D_, 6
	note C#, 1
	rest 1
	note F_, 1
	rest 3
	note G#, 4
	note A_, 2
	octave 4
;;;;;;;;;;;;;;mark
	duty_cycle $0
	vibrato 18, 4, 5
	note B_, 8
	note E_, 8
	note D_, 8
	octave 3
	note A_, 2
	octave 4
	note E_, 2 
	note F#, 2
	note G_, 2
	note A_, 2
	note F#, 2
	rest 2
	note D_, 2
	rest 2
	note A_, 2
	rest 2
	volume_envelope 12, 7
	note G#, 9
	note_type 6, 12, 7
	note F#, 1
	note F_, 1
	note_type 12, 12, 7
	note E_, 8
	note G_, 7
	note_type 6, 12, 7
	note F#, 1
	note F_, 1
	note_type 12, 12, 7
	note E_, 8
	note A_, 7
	note_type 6, 12, 7
	note G#, 1
	note G_, 1
	note_type 12, 12, 7
	note F#, 8
	note B_, 6
	rest 4
	note B_, 2
	octave 5
	note C_, 2
	octave 4
	note A_, 2
	note E_, 1
	rest 1
	note E_, 1
	rest 1
	note E_, 1
	rest 1
	note F#, 1
	rest 1
	duty_cycle $2
	note_type 6, 3, 4
	octave 4
	note B_, 1
	note F#, 1
	note C#, 1
	octave 3
	note G#, 1
	note D#, 1
	note A_, 1
	volume_envelope 4, 4
	octave 1
	note F#, 1
	note A_, 1
	octave 2
	note D#, 1
	note G#, 1
	octave 3
	volume_envelope 5, 4
	note C#, 1
	note F#, 1
	note B_, 1
	octave 4
	note E_, 1
	note A_, 1
	octave 5
	note D#, 1
	octave 3
	note_type 12, 11, 7
;;;;;;;;;;;;;;;mark
	note G#, 6
	vibrato 18, 15, 2
	note E_, 6
	rest 2
	vibrato 18, 5, 5
	note D_, 1
	note E_, 1
	note F#, 2
	rest 4
	octave 4
	volume_envelope 11, 0
	note D#, 2
	volume_envelope 11, 7
	vibrato 18, 15, 2
	note D#, 6
	note D_, 1
	note C#, 1
	octave 3
	note B_, 2
	vibrato 18, 5, 5
	rest 4
	octave 4
	note F#, 6
	note D#, 2
	octave 3
	note B_, 2
	octave 4
	note E_, 6
	vibrato 18, 15, 2
	note C#, 2
	vibrato 18, 5, 5
	rest 6
	note D#, 2
	note E_, 2
	rest 2
	note C#, 2
	note E_, 2
	rest 2
	note C#, 2
	note E_, 2
	note C#, 1
	note D#, 1
	vibrato 18, 15, 2
	note F#, 6
	note D#, 2
	rest 2
	note C#, 2
	rest 2
	vibrato 18, 5, 5
	note D#, 1
	note C#, 1
	octave 3
	note B_, 6
	vibrato 18, 15, 2
	volume_envelope 6, 7
	note B_, 6
	vibrato 18, 5, 5
	volume_envelope 11, 7
	note G#, 2
	note A_, 2
	octave 4
	vibrato 18, 15, 2
	note D_, 6
	vibrato 18, 5, 5
	note C#, 2
	rest 2
	octave 3
	note G#, 2
	rest 2
	note A_, 2
;;;;;;;;;;;;;;;;mark
	duty_cycle $0
	vibrato 18, 4, 5
	octave 4
	note B_, 6
	note E_, 2
	rest 6
	note D#, 1
	note E_, 1
	note F#, 3
	rest 3
	octave 5
	volume_envelope 11, 0
	note D#, 2
	volume_envelope 11, 7
	note D#, 6
	note D_, 1
	note C#, 1
	octave 4
	note B_, 3
	rest 3
	octave 5
	note F#, 6
	note A_, 2
	rest 2
	note G#, 2
	note A_, 2
	note B_, 2
	note F_, 2
	note F#, 2
	note G#, 2
	note D_, 2
	note C#, 2
	note E_, 2
	rest 2
	note C#, 2
	note E_, 2
	rest 2
	note C#, 2
	note E_, 2
	note E_, 1
	note F#, 1
	volume_envelope 11, 0
	note G#, 4
	volume_envelope 11, 7
	note G#, 5
	rest 1
	note A_, 2
	rest 2
	note F#, 2
	volume_envelope 11, 0
	note E_, 5
	volume_envelope 11, 7
	note E_, 7
	rest 2
	note E_, 1
	note F#, 1
	note G_, 1
	rest 1
	note G_, 1
	rest 1
	note G_, 1
	rest 1
	note G_, 1
	rest 1
	sound_jump, Music_HumilauCity_Ch1_loop

Music_HumilauCity_Ch2: ; ef3eb
	vibrato 18, 2, 5
	stereo_panning TRUE, FALSE
	pitch_offset $0002
Music_HumilauCity_Ch2_loop:
	duty_cycle $2
	note_type 12, 8, 3
	octave 4
	note B_, 2
	note G#, 2
	note A_, 2
	note F#, 2
	octave 3
	volume_envelope 8, 0
	duty_cycle $0
	note C#, 2
	volume_envelope 8, 7
	note C#, 6
	volume_envelope 8, 0
	note E_, 2
	volume_envelope 8, 7
	note E_, 6
	note F#, 5
	note_type 3, 8, 7
	note F#, 1
	note G#, 1
	note A_, 1
	note A#, 1
	note_type 12, 8, 7
	note B_, 4
	note A#, 2
	note A_, 2
	note G_, 2
	note D#, 6
	note D_, 1
	note D#, 1
	note F#, 6
	note F_, 1
	note F#, 1
	note G#, 6
	note B_, 2
	note D_, 2
	octave 2
	note B_, 2
	note G#, 2
	octave 3
	note C_, 2
	note C#, 6
	note C_, 1
	note C#, 1
	note E_, 6
	note D#, 1
	note E_, 1
	note F#, 2
	note F#, 3
	note_type 3, 8, 7
	rest 1
	note G#, 1
	note A_, 1
	note A#, 1
	note_type 12, 8, 7
	note B_, 4
	note A#, 2
	note A_, 2
	note G_, 2
	note D#, 6
	note D_, 1
	note D#, 1
	note F#, 6
	note G#, 1
	note A_, 1
	note A#, 1
	rest 1
	note A#, 1
	rest 1
	note A#, 1
	rest 1
	note A#, 1
	rest 3
	note A_, 6
;;;;;;;;;;;;;;;mark
	volume_envelope 6, 4
	note G#, 2
	note G#, 2
	note G#, 2
	note G_, 2
	note G#, 2
	note G#, 2
	note G#, 2
	note G#, 2
	note G#, 2
	note G#, 2
	note G#, 2
	octave 4
	note C#, 2
	octave 3
	note G#, 2
	note B_, 2
	note A_, 2
	note G#, 2
	note A#, 2
	note A#, 2
	note A#, 1
	note A#, 1
	note A#, 2
	note F#, 2
	octave 4
	note F#, 2
	note D#, 2
	octave 3
	note B_, 2
	note A_, 2
	note A_, 2
	note A_, 2
	note A_, 2
	note A_, 2
	note A_, 3
	rest 1
	note G_, 2
	note G#, 2
	note G#, 2
	note G#, 2
	note G_, 2
	note G#, 2
	note G#, 2
	note G#, 2
	note G#, 2
	note G#, 2
	note G#, 2
	note G#, 2
	octave 4
	note D#, 2
	octave 3
	note G#, 2
	note G#, 2
	note A_, 2
	note G#, 2
	note A#, 2
	note A#, 2
	note A#, 2
	note A#, 2
	note F#, 2
	octave 4
	note F#, 2
	note D#, 2
	octave 3
	note B_, 2
	note A_, 2
	note A_, 2
	note A_, 2
	note G_, 4
	note A_, 2
	note A_, 4
;;;;;;;;;;;;;mark
	volume_envelope 8, 2
	octave 4
	note E_, 1
	octave 3
	note B_, 1
	note G_, 1
	note E_, 1
	octave 4
	note E_, 1
	rest 1
	octave 3
	note G_, 1
	note E_, 1
	octave 4
	note G_, 1
	note E_, 1
	octave 3
	note B_, 1
	note G_, 1
	note B_, 1
	note G_, 1
	note E_, 1
	octave 2
	note B_, 1
	volume_envelope 10, 7
	octave 3
	note F#, 8
	note A_, 6
	volume_envelope 8, 2
	octave 3
	note A#, 1
	octave 4
	note C_, 1
	note D_, 1
	octave 3
	note A_, 1
	note F#, 1
	note D_, 1
	octave 4
	note F#, 1
	rest 1
	note D_, 1
	octave 3
	note A_, 1
	octave 4
	note A_, 1
	note D_, 1
	octave 3
	note A_, 1
	note F#, 1
	note A_, 1
	note F#, 1
	note D_, 1
	octave 4
	note A_, 1
	note_type 6, 10, 7
	octave 3
	note B_, 14
	note A#, 1
	note A_, 1
	note G#, 4
	note B_, 7
	note A#, 1
	note A_, 2
	note G#, 2
	octave 4
	note C_, 14
	octave 3
	note B_, 1
	note A#, 1
	note A_, 4
	octave 4
	note C_, 8
	octave 3
	note B_, 2
	note A_, 2
	octave 4
	note D_, 14
	note C#, 1
	note C_, 1
	octave 3
	note B_, 4
	octave 4
	note D_, 8
	note C_, 2
	octave 3
	note A_, 2
	octave 4
	note_type 12, 8, 2
	note E_, 1
	octave 3
	note B_, 1
	note G_, 1
	note E_, 1
	octave 4
	note G_, 1
	rest 1
	octave 3
	note B_, 1
	note G_, 1
	octave 4
	note B_, 1
	note G_, 1
	note E_, 1
	octave 3
	note B_, 1
	octave 4
	note G_, 1
	note E_, 1
	octave 3
	note B_, 1
	note G_, 1
	volume_envelope 10, 7
	octave 4
	note C_, 1
	rest 1
	note C_, 1
	rest 1
	note C_, 1
	rest 1
	octave 3
	note B_, 1
	rest 1
	volume_envelope 8, 3
	duty_cycle $2
	octave 4
	note B_, 2
	note G#, 2
	note A_, 2
	note F#, 2
;;;;;;;;;;;;;;mark
	volume_envelope 8, 7
	octave 3
	note E_, 6
	note C#, 6
	rest 2
	octave 2
	note B_, 1
	octave 3
	note C#, 1
	note D#, 2
	rest 4
	note B_, 8
	note A_, 1
	note G#, 1
	note F#, 2
	rest 4
	octave 4
	note D#, 6
	octave 3
	note B_, 2
	note F#, 2
	octave 4
	note C#, 6
	octave 3
	note G#, 2
	rest 6
	octave 4
	note C_, 2
	note C#, 2
	rest 2
	octave 3
	note A_, 2
	octave 4
	note C#, 2
	rest 2
	octave 3
	note A_, 2
	octave 4
	note C#, 2
	octave 3
	note A_, 2
	octave 4
	note C#, 6
	octave 3
	note A_, 2
	rest 2
	note F#, 2
	rest 2
	note A_, 1
	note F#, 1
	note G#, 6
	note G_, 2
	rest 2
	note G#, 2
	octave 2
	note F_, 2
	note F#, 2
	note G#, 6
	note F_, 2
	rest 2
	note G#, 2
	octave 3
	note D_, 2
	rest 2
	duty_cycle $0
	note E_, 6
	note C#, 1
	note D#, 1
	note E_, 2
	note G#, 2
	rest 2
	note A_, 1
	note G#, 1
	note D#, 2
	rest 4
	octave 2
	note B_, 1
	octave 3
	note C#, 1
	note D#, 2
	note F#, 2
	rest 2
	note A_, 1
	note G#, 1
	note F#, 2
	rest 4
	octave 2
	note B_, 1
	octave 3
	note C#, 1
	note D#, 2
	note D#, 1
	note E_, 1
	note F#, 2
	note F#, 1
	note G#, 1
	note B_, 2
	octave 4
	note C#, 1
	rest 1
	octave 3
	note G#, 2
	note B_, 1
	rest 1
	note F_, 2
	note G#, 1
	rest 1
	note C#, 2
	note F_, 1
	note G#, 1
	octave 4
	note C#, 2
	rest 2
	octave 3
	note A_, 2
	octave 4
	note C#, 2
	rest 2
	octave 3
	note A_, 2
	octave 4
	note C#, 2
	note C#, 1
	note D#, 1
	note E_, 8
	note C_, 4
	octave 3
	note A_, 4
	octave 4
	note C_, 4
	octave 3
	note A_, 4
	note E_, 4
	note C_, 4
	octave 4
	note C_, 1
	rest 1
	note C_, 1
	rest 1
	note C_, 1
	rest 1
	note C_, 1
	rest 1
	sound_jump, Music_HumilauCity_Ch2_loop

Music_HumilauCity_Ch3: ; ef4e1
	stereo_panning TRUE, TRUE
	vibrato 18, 1, 5
	note_type 12, 1, 3
	octave 2
	rest 8
Music_HumilauCity_Ch3_loop:
	note F#, 4
	rest 2
	note F#, 1
	rest 1
	note F#, 1
	rest 1
	octave 3
	note C#, 4
	note C_, 2
	octave 2
	note B_, 4
	rest 2
	note B_, 1
	rest 1
	note A_, 1
	rest 1
	note A_, 1
	rest 1
	note B_, 4
	note G#, 4
	rest 2
	note G#, 1
	rest 1
	note G#, 1
	rest 1
	note D#, 2
	octave 3
	note D#, 2
	note D_, 2
	note C#, 4
	rest 2
	note C#, 1
	rest 1
	octave 2
	note C#, 1
	rest 1
	octave 3
	note C#, 2
	rest 2
	octave 2
	note C#, 1
	rest 1
	note F#, 4
	rest 2
	note F#, 1
	rest 1
	note F#, 1
	rest 1
	octave 3
	note C#, 2
	note C_, 2
	octave 2
	note B_, 1
	rest 1
	note B_, 1
	rest 1
	octave 1
	note B_, 4
	octave 2
	note B_, 1
	rest 1
	note A_, 1
	rest 1
	note A_, 1
	rest 1
	note F#, 4
	note G#, 4
	rest 2
	note G#, 1
	rest 1
	note G#, 1
	rest 1
	octave 3
	note D#, 4
	note D_, 2
	octave 2
	note C#, 1
	rest 1
	note C#, 1
	rest 1
	note C#, 1
	rest 1
	note C#, 1
	rest 3
	note C#, 6
;;;;;;;;;;;;;;mark
	note F#, 1
	rest 1
	note F#, 1
	rest 1
	volume_envelope 2, 3
	note F#, 1
	rest 1
	volume_envelope 1, 3
	note F#, 1
	rest 1
	volume_envelope 2, 3
	note F#, 1
	rest 1
	note F#, 1
	rest 1
	volume_envelope 1, 3
	note F#, 1
	rest 1
	volume_envelope 2, 3
	note F#, 1
	rest 1
	volume_envelope 1, 3
	note B_, 1
	rest 1
	note B_, 1
	rest 1
	volume_envelope 2, 3
	note B_, 1
	rest 1
	volume_envelope 1, 3
	note B_, 1
	rest 1
	volume_envelope 2, 3
	note B_, 1
	rest 1
	note B_, 1
	rest 1
	volume_envelope 1, 3
	note B_, 1
	rest 1
	volume_envelope 2, 3
	note B_, 1
	rest 1
	volume_envelope 1, 3
	note G#, 1
	rest 1
	note G#, 1
	rest 1
	volume_envelope 2, 3
	note G#, 1
	rest 1
	volume_envelope 1, 3
	note G#, 1
	rest 1
	volume_envelope 2, 3
	note G#, 1
	rest 1
	note G#, 1
	rest 1
	volume_envelope 1, 3
	note G#, 1
	rest 1
	volume_envelope 2, 3
	note G#, 1
	rest 1
	volume_envelope 1, 3
	note C#, 1
	rest 1
	note C#, 1
	rest 1
	volume_envelope 2, 3
	note C#, 1
	rest 1
	volume_envelope 1, 3
	note C#, 1
	rest 1
	volume_envelope 2, 3
	note C#, 1
	rest 1
	volume_envelope 1, 3
	note C#, 4
	note F_, 2
	note F#, 1
	rest 1
	note F#, 1
	rest 1
	volume_envelope 2, 3
	note F#, 1
	rest 1
	volume_envelope 1, 3
	note F#, 1
	rest 1
	note F#, 2
	note B_, 1
	rest 1
	note A_, 2
	octave 3
	note C#, 1
	rest 1
	octave 2
	note B_, 1
	rest 1
	note B_, 1
	rest 1
	volume_envelope 2, 3
	note B_, 1
	rest 1
	volume_envelope 1, 3
	note B_, 1
	rest 1
	volume_envelope 2, 3
	note A_, 1
	rest 1
	note A_, 1
	rest 1
	volume_envelope 1, 3
	note B_, 1
	rest 1
	volume_envelope 2, 3
	note B_, 1
	rest 1
	volume_envelope 1, 3
	note G#, 1
	rest 1
	note G#, 1
	rest 1
	volume_envelope 2, 3
	note G#, 1
	rest 1
	volume_envelope 1, 3
	note G#, 1
	rest 1
	volume_envelope 2, 3
	note F#, 1
	rest 1
	note F#, 1
	rest 1
	volume_envelope 1, 3
	note G#, 1
	rest 1
	volume_envelope 2, 3
	note F_, 1
	rest 1
	volume_envelope 1, 3
	note C#, 1
	rest 1
	note C#, 1
	rest 1
	volume_envelope 2, 3
	note C#, 1
	rest 1
	volume_envelope 1, 3
	note C#, 1
	rest 1
	volume_envelope 2, 3
	note C#, 1
	rest 1
	note C#, 1
	rest 1
	volume_envelope 1, 3
	note B_, 2
	note D_, 1
	note C#, 1
;;;;;;;;;;;;;mark
	note C_, 4
	octave 3
	note C_, 1
	rest 1
	octave 2
	note D_, 1
	note C_, 1
	rest 2
	note C_, 2
	octave 3
	note C_, 2
	octave 2
	note D_, 1
	note C#, 1
	note C_, 4
	rest 2
	note C_, 1
	note D_, 1
	octave 3
	note C_, 2
	octave 2
	note G_, 2
	note E_, 2
	note D_, 2
	octave 1
	note B_, 4
	octave 2
	note B_, 1
	rest 1
	note C_, 1
	octave 1
	note B_, 1
	rest 2
	note B_, 2
	octave 2
	note B_, 2
	note F#, 1
	note F_, 1
	note D_, 2
	note B_, 1
	rest 3
	octave 1
	note B_, 2
	octave 2
	note B_, 2
	note G#, 2
	note E_, 2
	octave 1
	note B_, 1
	note A#, 1
	note A_, 4
	octave 2
	note A_, 1
	rest 1
	octave 1
	note B_, 1
	note A_, 1
	rest 2
	note A_, 2
	octave 2
	note A_, 2
	octave 1
	note A_, 2
	note B_, 1
	octave 2
	note B_, 1
	octave 1
	note B_, 2
	octave 2
	note B_, 1
	rest 1
	note C_, 1
	octave 1
	note B_, 1
	rest 2
	note B_, 1
	rest 1
	note B_, 1
	octave 2
	note B_, 1
	octave 1
	note B_, 1
	octave 2
	note B_, 1
	octave 3
	note C_, 1
	octave 2
	note C_, 1
	rest 1
	note C_, 1
	octave 3
	note C_, 1
	rest 1
	octave 2
	note C_, 1
	note B_, 1
	octave 3
	note C_, 1
	octave 2
	note C_, 3
	octave 3
	note C_, 2
	octave 2
	note A_, 2
	octave 1
	note B_, 2
	octave 3
	note D#, 2
	note C_, 2
	octave 2
	note B_, 2
	octave 1
	note B_, 2
	note A#, 2
	octave 2
	note B_, 4
;;;;;;;;;;;;;;;mark
	note A_, 2
	note G#, 3
	rest 1
	note A_, 2
	rest 8
	note A_, 2
	note G#, 3
	rest 1
	note A_, 2
	rest 8
	note G#, 2
	note D#, 3
	rest 1
	note B_, 2
	rest 4
	octave 3
	note C_, 2
	rest 2
	note C#, 2
	note C_, 2
	rest 2
	note C#, 2
	rest 2
	octave 2
	note C#, 2
	octave 3
	note C#, 3
	rest 1
	octave 2
	note F#, 2
	note F_, 2
	rest 2
	note F#, 2
	rest 4
	note F#, 2
	rest 2
	note F#, 2
	note F_, 2
	rest 2
	note F#, 2
	rest 2
	note B_, 2
	octave 3
	note D#, 3
	rest 1
	octave 2
	note E_, 2
	rest 4
	note D#, 2
	rest 2
	note E_, 2
	note B_, 2
	note D#, 2
	note C#, 2
	note C_, 2
	rest 2
	note C#, 2
	rest 2
	note F_, 2
	note G#, 2
	rest 2
	note A_, 2
	rest 4
	note A_, 2
	rest 8
	note A_, 1
	rest 1
	note A_, 2
	rest 2
	note A_, 2
	rest 8
	note G#, 2
	rest 4
	note G#, 2
	rest 2
	note C#, 2
	note B_, 2
	rest 2
	octave 3
	note C#, 1
	rest 1
	note C#, 2
	rest 2
	octave 2
	note C#, 2
	rest 2
	note C#, 2
	note E_, 2
	note F_, 2
	note F#, 3
	rest 3
	octave 3
	note E_, 2
	rest 2
	note D#, 2
	note D_, 2
	note C#, 2
	octave 2
	note B_, 2
	octave 1
	note B_, 2
	rest 2
	octave 2
	note B_, 2
	rest 2
	octave 1
	note B_, 2
	octave 2
	note B_, 2
	rest 2
	note E_, 2
	rest 4
	note E_, 2
	rest 4
	note E_, 2
	note D_, 2
	octave 1
	note B_, 2
	octave 2
	note B_, 2
	octave 1
	note B_, 2
	octave 2
	note B_, 2
	rest 2
	octave 1
	note B_, 6
	sound_jump, Music_HumilauCity_Ch3_loop

Music_HumilauCity_Ch4: ; f517a
	toggle_noise $3
	stereo_panning FALSE, TRUE
	drum_speed 12
	rest 8
Music_HumilauCity_Ch4_loop:
	drum_note 4, 4
	drum_note 1, 2
	drum_note 4, 2
	drum_note 4, 2
	drum_note 4, 2
	drum_note 1, 2
	drum_note 4, 2
	sound_jump, Music_HumilauCity_Ch4_loop