Music_MistraltonCity:
	channel_count 4
	channel 1, Music_MistraltonCity_Ch1
	channel 2, Music_MistraltonCity_Ch2
	channel 3, Music_MistraltonCity_Ch3
	channel 4, Music_MistraltonCity_Ch4

Music_MistraltonCity_Ch1:
	volume 7, 7
	duty_cycle $0
	note_type 3, 11, 7
	vibrato 8, 2, 4
	stereo_panning FALSE, TRUE
	tempo 139
;Bar 1
	rest 16
	octave 2
	note B_, 2
	rest 2
	octave 3
	note C#, 2
	rest 2
	note D#, 2
	rest 2
	note E_, 2
	rest 2
	note D#, 2
	rest 2
	note C#, 2
	rest 2
	octave 2
	note B_, 2
	rest 2
	note A#, 2
	rest 2
	octave 1
	note B_, 16
;Bar 2
	octave 4
	note D#, 5
	volume_envelope 5, 7
	note D_, 1
	note C_, 1
	octave 3
	note A#, 1
	note G#, 1
	volume_envelope 11, 7
	rest 5
	octave 2
	volume_envelope 5, 7
	note C#, 1
	note D_, 1
	volume_envelope 11, 7
	note D#, 8
	note E_, 2
	rest 6
	note F#, 4
	rest 4
	octave 3
	note C#, 6
	volume_envelope 5, 7
	note C_, 1
	octave 2
	note B_, 1
	volume_envelope 11, 7
	rest 8
	note B_, 6
	volume_envelope 5, 7
	note A#, 1
	note A_, 1
	volume_envelope 11, 7
;Bar 3
	rest 8
	note A#, 6
	volume_envelope 5, 7
	note A_, 1
	note G#, 1
	volume_envelope 11, 7
	rest 8
	note B_, 6
	volume_envelope 5, 7
	note A#, 1
	note A_, 1
	volume_envelope 11, 7
	rest 7
	note A#, 1
	note_type 12, 11, 7
	note B_, 8
	note_type 3, 11, 7
;Bar 4
	note A#, 2
	rest 2
	note A_, 4
	note G_, 8
	note G_, 4
	rest 4
	note E_, 4
	rest 4
	note G_, 4
	rest 11
	note F_, 1
	note F#, 8
;Bar 5
	note G_, 4
	rest 4
	octave 3
	note G_, 6
	volume_envelope 5, 7
	note F#, 1
	note F_, 1
	volume_envelope 11, 7
	rest 8
	note F#, 6
	volume_envelope 5, 7
	note F_, 1
	note E_, 1
	volume_envelope 11, 7
	rest 8
	note E_, 2
	rest 2
	note E_, 2
	rest 1
	note F_, 1
	note_type 12, 11, 7
	note F#, 6
;Bar 6
	note_type 3, 11, 7
	note F_, 2
	rest 2
	note E_, 4
	note D#, 8
	note F#, 2
	rest 2
	note F#, 2
	rest 2
	note A#, 4
	rest 4
	note B_, 4
	rest 12
	note A#, 2
	rest 2
	note A#, 2
	rest 2
;Bar 7
	note B_, 4
	rest 4
	note B_, 6
	volume_envelope 5, 7
	note A#, 1
	note A_, 1
	volume_envelope 11, 7
	rest 8
	octave 4
	note E_, 6
	volume_envelope 5, 7
	note D#, 1
	note D_, 1
	volume_envelope 11, 7
	rest 8
	note E_, 2
	rest 2
	note E_, 2
	rest 2
	note_type 12, 11, 7
	note E_, 6
	note_type 3, 11, 7
;Bar 8
	note D#, 2
	rest 2
	note C#, 4
	octave 3
	note B_, 4
	rest 4
	note B_, 8
	note A#, 4
	rest 4
	note B_, 4
	volume_envelope 5, 7
	note A#, 1
	note A_, 1
	note G#, 1
	note G_, 1
	volume_envelope 11, 7
	rest 8
	octave 2
	note B_, 2
	rest 2
	note B_, 2
	rest 2
;Bar 9
	octave 3
	note E_, 4
	rest 4
	octave 2
	note B_, 4
	rest 4
	note G_, 4
	rest 4
	octave 3
	note G_, 3
	rest 5
	octave 2
	volume_envelope 5, -3
	note B_, 16
	volume_envelope 11, 7
	note F#, 2
	rest 2
	note F#, 2
	rest 16
	rest 2
;Bar 10
	note F#, 2
	rest 2
	note F#, 2
	rest 16
	rest 2
	volume_envelope 5, -3
	note B_, 16
	volume_envelope 11, 7
	note F#, 2
	rest 2
	note F#, 2
	rest 16
	rest 2
;Bar 11
	note F#, 2
	rest 2
	note F#, 2
	rest 16
	rest 2
	octave 3
	volume_envelope 5, -3
	note F_, 16
	volume_envelope 11, 7
	octave 2
	note F#, 2
	rest 2
	note F#, 2
	rest 16
	rest 2
;Bar 12
	note F#, 2
	rest 2
	note F#, 2
	rest 16
	rest 2
	octave 3
	volume_envelope 5, -3
	note G_, 16
	volume_envelope 11, 7
	note A#, 2
	rest 2
	note A#, 2
	rest 16
	rest 2
;Bar 13
	note A#, 2
	rest 2
	note A#, 2
	volume_envelope 5, 7
	note A_, 1
	note G_, 1
	note F_, 1
	note D#, 1
	volume_envelope 11, 7
	rest 16
	rest 10
	note A_, 2
	note A#, 2
	note B_, 3
	rest 9
	note F#, 1
	rest 3
;Bar 14
	note_type 12, 11, 7
	note F#, 10
	note F#, 1
	note F_, 1
	note F#, 2
	rest 2
;Bar 15
	note C#, 4
	note B_, 3
	note A#, 3
	note G#, 2
	note F#, 6
;Bar 16
	note G#, 1
	note F#, 1
	note E_, 8
	rest 1
	octave 2
	note G#, 3
;Bar 17
	octave 3
	note C#, 1
	rest 1
	note F#, 1
	rest 2
	note F#, 3
	note B_, 1
	rest 1
	octave 4
	note E_, 1
	note F#, 1
	octave 3
	note F#, 1
	rest 2
	note G#, 1
;Bar 18
	note F#, 10
	note F#, 1
	note F_, 1
	note F#, 2
	rest 2
;Bar 19
	note D#, 4
	note F#, 3
	note E_, 3
	note D#, 2
	note D_, 14
;Bar 20
	note E_, 1
	note D#, 1
	octave 2
	note A_, 12
;Bar 21
	rest 2
	note F#, 1
	note G_, 1
	note G#, 8
;Bar 22
	octave 3
	note C#, 4
	note F_, 4
	note C#, 4
;Bar 23
	note G#, 4
	note F_, 3
	note G#, 3
	note F_, 2
	note D_, 3
	rest 3
;Bar 24
	note E_, 1
	note D_, 1
	octave 2
	note A_, 2
	octave 3
	note F#, 2
	rest 5
	octave 2
	note A_, 13
;Bar 25
	octave 3
	note G_, 1
	note G#, 1
	octave 2
	note A_, 12
;Bar 26
	octave 3
	note F#, 4
	note D_, 4
;Bar 27
	note A_, 4
	note F#, 3
	octave 2
	note A_, 3
	octave 3
	note D_, 2
	note A_, 8
;Bar 28
	note A#, 10
	note_type 3, 11, 7
	note F#, 2
	rest 2
	note G#, 4
;Bar 29
	rest 4
	note G#, 4
	rest 4
	note F#, 2
	rest 2
	note G#, 4
	rest 4
	note A_, 16
	volume_envelope 5, 7
	note G#, 1
	note G_, 1
	note F#, 1
	note F_, 1
	note E_, 1
	note D#, 1
	note D_, 1
	rest 1
	volume_envelope 11, 1
	note F#, 4
	octave 2
	note B_, 4
	note F#, 4
	note B_, 4
;Bar 30
	sound_call Music_MistraltonCity_Ch1_Bar30
;Bar 31
	sound_call Music_MistraltonCity_Ch1_Type2
	note A_, 4
	note F#, 4
	note D_, 4
	note F#, 4
;Bar 32
	note A_, 4
	note B_, 4
	note A_, 4
	note F#, 4
	note E_, 4
	note F#, 4
	note A_, 4
	octave 3
	note C#, 4
	note D_, 4
	note E_, 4
	note F#, 4
	note A_, 4
	note F#, 4
	note A_, 4
	note F#, 4
	note E_, 4
;Bar 33
	note D_, 4
	note E_, 4
	note D_, 4
	octave 2
	note A_, 4
	note F#, 4
	note A_, 4
	octave 3
	note D_, 4
	note E_, 4
	note F#, 4
	note A_, 4
	note B_, 4
	note A_, 4
	note F#, 4
	octave 2
	note B_, 4
	note F#, 4
	note B_, 4
;Bar 34
	sound_call Music_MistraltonCity_Ch1_Bar30
;Bar 35
	sound_call Music_MistraltonCity_Ch1_Type2
	octave 3
	note D_, 4
	octave 2
	note A_, 4
	note F#, 4
	note A_, 4
;Bar 36
	note F#, 4
	octave 3
	note F#, 4
	octave 2
	note F#, 4
	octave 3
	note E_, 4
	octave 2
	note F#, 4
	octave 3
	note D_, 4
	octave 2
	note F#, 4
	octave 3
	note C#, 4
	octave 2
	note F#, 4
	note B_, 4
	octave 3
	note D_, 4
	note F#, 4
	octave 2
	note F#, 4
	octave 3
	note D_, 4
	octave 2
	note F#, 4
	octave 3
	note C#, 4
;Bar 37
	octave 2
	note F#, 4
	note B_, 4
	note F#, 4
	note A_, 4
	octave 3
	note D_, 4
	octave 2
	note A_, 4
	note F#, 4
	note A_, 4
	octave 3
	note D_, 4
	note E_, 4
	note F_, 4
	note A_, 4
	octave 2
	note G#, 4
	note F_, 4
	note C#, 4
	note F_, 4
;Bar 38
Music_MistraltonCity_Ch1_Bar38:
	note G#, 4
	octave 3
	note C#, 4
	note F_, 4
	note G#, 4
	octave 2
	note G#, 4
	note F_, 4
	note C#, 4
	note F_, 4
	sound_loop 2, Music_MistraltonCity_Ch1_Bar38
;Bar 39
	transpose 1, 11
	sound_call Music_MistraltonCity_Ch1_Type1
	transpose 0, 0
	octave 3
	note D#, 2
	note C#, 2
	octave 2
	note A_, 4
	note F#, 4
	note D_, 4
	note F#, 4
;Bar 40
	sound_call Music_MistraltonCity_Ch1_Type3
	sound_call Music_MistraltonCity_Ch1_Type3
;Bar 41
	sound_call Music_MistraltonCity_Ch1_Type1
	octave 3
	note E_, 4
	octave 2
	note A_, 4
	octave 3
	note D_, 4
	note F#, 4
	note E_, 4
;Bar 42
	note D_, 4
	note E_, 4
	note D_, 4
	octave 2
	note A_, 4
	note F#, 4
	note G_, 4
	note F#, 4
	note E_, 4
	sound_call Music_MistraltonCity_Ch1_Type3
;Bar 43
	sound_call Music_MistraltonCity_Ch1_Type1
	octave 3
	note E_, 4
	note_type 12, 11, 7
	note C#, 6
;Bar 44
	note_type 3, 4, 7
	note D_, 1
	note D#, 1
	note E_, 1
	note F_, 1
	note F#, 1
	note G_, 1
	note G#, 1
	note A_, 1
	note_type 12, 11, 7
	note A#, 8
	rest 4
	sound_jump Music_MistraltonCity_Ch1

Music_MistraltonCity_Ch1_Type1:
	note A_, 4;
	octave 3
	note D_, 4
	note F#, 4
	note A_, 4

	octave 2
	note A_, 4
	octave 3
	note A_, 4
	octave 2
	note A_, 4
	octave 3
	note G_, 4

	octave 2
	note A_, 4
	octave 3
	note F#, 4
	octave 2
	note A_, 4
	sound_ret

Music_MistraltonCity_Ch1_Type2:
	octave 3;
	note D#, 4
	octave 2
	note B_, 4
	note F#, 4
	note B_, 4
	note F#, 4
	note B_, 4
	octave 3
	note D#, 4
	note C#, 4
	octave 2
	note B_, 4
	octave 3
	note C#, 4
	octave 2
	note B_, 4
	note A_, 4
	sound_ret

Music_MistraltonCity_Ch1_Type3:
	note A_, 4;
	octave 3
	note D_, 4
	note F#, 4
	note A_, 4
	octave 2
	note A_, 4
	note F#, 4
	note D_, 4
	note F#, 4
	sound_ret

Music_MistraltonCity_Ch1_Bar30:
	octave 3;
	note F#, 4
	octave 2
	note B_, 4
	note F#, 4
	note B_, 4
	note F#, 4
	note B_, 4
	octave 3
	note F#, 4
	note E_, 4
	note D#, 4
	note E_, 4
	note D#, 4
	note C#, 4
	note D#, 4
	octave 2
	note B_, 4
	note F#, 4
	note B_, 4
	sound_ret

; ============================================================================================================

Music_MistraltonCity_Ch2:
	duty_cycle $1
	note_type 3, 13, 7
	vibrato 8, 3, 4
	stereo_panning TRUE, FALSE
;Bar 1
	rest 16
	octave 3
	note B_, 2
	rest 1
	octave 4
	note C#, 3
	rest 1
	note D#, 3
	rest 1
	note E_, 3
	rest 2
	note D#, 2
	rest 1
	note C#, 3
	rest 1
	octave 3
	note B_, 3
	rest 1
	note A#, 3
	rest 2
	octave 2
	note B_, 16
;Bar 2
	octave 4
	note B_, 5
	volume_envelope 7, 7
	note A#, 1
	note G#, 1
	note F#, 1
	note E_, 1
	rest 5
	octave 3
	note C#, 1
	note D_, 1
	volume_envelope 13, 7
	note D#, 8
	note E_, 2
	rest 6
	note F#, 4
	rest 4
	octave 4
	note C#, 6
	volume_envelope 7, 7
	note C_, 1
	octave 3
	note B_, 1
	volume_envelope 13, 7
	rest 8
	note B_, 6
	volume_envelope 7, 7
	note A#, 1
	note A_, 1
	volume_envelope 13, 7
;Bar 3
	rest 8
	note A#, 6
	volume_envelope 7, 7
	note A_, 1
	note G#, 1
	volume_envelope 13, 7
	rest 8
	note B_, 6
	volume_envelope 7, 7
	note A#, 1
	note A_, 1
	volume_envelope 13, 7
	rest 7
	note A#, 1
	note_type 12, 13, 7
	note B_, 8
	note_type 3, 13, 7
;Bar 4
	note A#, 4
	note A_, 4
	note G_, 8
	note G_, 4
	rest 4
	note E_, 4
	rest 4
	note G_, 4
	rest 11
	note F_, 1
	note F#, 8
;Bar 5
	note G_, 4
	rest 4
	octave 4
	note G_, 6
	volume_envelope 7, 7
	note F#, 1
	note F_, 1
	volume_envelope 13, 7
	rest 8
	note F#, 6
	volume_envelope 7, 7
	note F_, 1
	note E_, 1
	volume_envelope 13, 7
	rest 8
	note E_, 2
	rest 2
	note E_, 2
	rest 1
	note F_, 1
	note_type 12, 13, 7
	note F#, 6
	note_type 3, 13, 7
;Bar 6
	note F_, 4
	note E_, 4
	note D#, 8
	octave 3
	note B_, 2
	rest 2
	note B_, 2
	rest 2
	octave 4
	note C#, 4
	rest 4
	note D#, 4
	rest 12
	note C#, 2
	rest 2
	note C#, 2
	rest 2
;Bar 7
	note D#, 4
	rest 4
	note E_, 6
	volume_envelope 7, 7
	note D#, 1
	note D_, 1
	volume_envelope 13, 7
	rest 8
	note G_, 6
	volume_envelope 7, 7
	note F#, 1
	note F_, 1
	volume_envelope 13, 7
	rest 8
	note B_, 2
	rest 2
	note B_, 2
	rest 2
	note_type 12, 13, 7
	note B_, 6
	note_type 3, 13, 7
;Bar 8
	note A#, 4
	note A_, 4
	note G_, 4
	rest 4
	note G_, 8
	note F#, 4
	rest 4
	note G_, 4
	volume_envelope 7, 7
	note F#, 1
	note F_, 1
	note E_, 1
	note D#, 1
	volume_envelope 13, 7
	rest 8
	octave 3
	note E_, 2
	rest 2
	note E_, 2
	rest 2
;Bar 9
	note G_, 4
	rest 4
	note F#, 4
	rest 4
	note E_, 4
	rest 4
	note B_, 4
	rest 4
	octave 4
	volume_envelope 7, -3
	note E_, 16
	volume_envelope 13, 7
	octave 3
	note B_, 2
	rest 2
	note B_, 2
	rest 16
	rest 2
;Bar 10
	note B_, 2
	rest 2
	note B_, 2
	rest 16
	rest 2
	volume_envelope 7, -3
	note F_, 16
	volume_envelope 13, 7
	note A#, 2
	rest 2
	note A#, 2
	rest 16
	rest 2
;Bar 11
	note A#, 2
	rest 2
	note A#, 2
	rest 16
	rest 2
	volume_envelope 7, -3
	note G_, 16
	volume_envelope 13, 7
	octave 4
	note F#, 2
	rest 2
	note F#, 2
	rest 16
	rest 2
;Bar 12
	note F#, 2
	rest 2
	note F#, 2
	rest 16
	rest 2
	volume_envelope 7, -3
	note F_, 16
	volume_envelope 13, 7
	note A#, 2
	rest 2
	note A#, 2
	rest 8
;Bar 13
	rest 10
	note A#, 2
	rest 2
	note A#, 2
	volume_envelope 7, 7
	note A_, 1
	note G_, 1
	note F_, 1
	note D#, 1
	volume_envelope 13, 7
	rest 16
	rest 10
	note D_, 2
	note D#, 2
	note E_, 3
	rest 9
	note D#, 1
	rest 3
;Bar 14
	note_type 12, 13, 7
	note D#, 10
	rest 1
	note D_, 1
	note D#, 2
	rest 2
;Bar 15
	octave 3
	note F#, 4
	octave 4
	note E_, 3
	note D#, 3
	note C#, 2
	octave 3
	note B_, 6
;Bar 16
	octave 4
	note C#, 1
	octave 3
	note B_, 1
	note A_, 8
	rest 1
	note C#, 3
;Bar 17
	note F#, 1
	rest 1
	note B_, 1
	rest 2
	note B_, 3
	octave 4
	note E_, 1
	rest 1
	note A_, 1
	note B_, 1
	note E_, 1
	rest 2
	note F#, 1
;Bar 18
	note D#, 10
	note D#, 1
	note D_, 1
	note D#, 2
	rest 2
;Bar 19
	octave 3
	note F#, 4
	octave 4
	note D#, 3
	note C#, 3
	octave 3
	note B_, 2
	note A#, 14
;Bar 20
	note B_, 1
	note A#, 1
	note A_, 8
;Bar 21
	note F#, 6
	note F#, 1
	note G_, 1
	note G#, 12
;Bar 22
	octave 4
	note G#, 4
	note F#, 4
;Bar 23
	note F_, 4
	note D#, 3
	note C#, 3
	note C_, 2
	octave 3
	note B_, 6
;Bar 24
	octave 4
	note C#, 1
	octave 3
	note B_, 1
	note A_, 8
	rest 4
;Bar 25
	note D_, 1
	rest 1
	note A_, 1
	rest 2
	note D_, 3
	note A_, 1
	rest 1
	octave 4
	note F_, 1
	note F#, 1
	octave 3
	note A_, 12
	octave 4
;Bar 26
	note A_, 4
	note G_, 4
;Bar 27
	note F#, 4
	note E_, 3
	note D_, 3
	octave 3
	note A_, 2
	octave 4
	note A_, 8
;Bar 28
	note A#, 8
	rest 2
	note D_, 1
	note E_, 1
;Bar 29
	note_type 3, 13, 7
	rest 4
	note E_, 4
	rest 4
	note D_, 2
	rest 2
	note E_, 4
	rest 4
	note F_, 16
	volume_envelope 7, 7
	note E_, 1
	note D#, 1
	note D_, 1
	note C#, 1
	note C_, 1
	volume_envelope 14, 7
	octave 3
	note B_, 1
	note A#, 1
	rest 1
	octave 4
	note_type 12, 14, 7
	note F#, 8
;Bar 30
	octave 3
	volume_envelope 14, 8
	note B_, 2
	volume_envelope 14, 7
	note B_, 10
;Bar 31
	note F#, 4
	note B_, 3
	octave 4
	note C#, 3
	note D#, 2
	note E_, 6
;Bar 32
	note D#, 1
	note E_, 1
	volume_envelope 14, 8
	note F#, 12
	volume_envelope 14, 7
	note F#, 10
;Bar 33
	note G_, 1
	note E_, 1
	note F#, 8
;Bar 34
	octave 3
	volume_envelope 14, 8
	note B_, 2
	volume_envelope 14, 7
	note B_, 10
;Bar 35
	note F#, 4
	octave 4
	note D#, 3
	note C#, 3
	octave 3
	note B_, 2
	volume_envelope 14, 8
	note A#, 4
	volume_envelope 14, 7
	note A#, 10
;Bar 36
	note B_, 1
	note A#, 1
	volume_envelope 14, 8
	note A_, 4
	volume_envelope 14, 7
	note A_, 10
;Bar 37
	note F#, 1
	note G_, 1
	volume_envelope 14, 8
	note G#, 2
	volume_envelope 14, 7
	note G#, 10
;Bar 38
	octave 4
	note G#, 4
	note F#, 4
;Bar 39
	note F_, 4
	note D#, 3
	note C#, 3
	note C_, 2
	octave 3
	note B_, 8
;Bar 40
	volume_envelope 14, 8
	note A_, 13
	volume_envelope 14, 7
	note A_, 10
;Bar 41
	note_type 6, 14, 7
	note G_, 1
	note G#, 1
	note_type 12, 14, 7
	note A_, 12
;Bar 42
	octave 4
	note A_, 4
	note G_, 4
;Bar 43
	note F#, 4
	note E_, 3
	note D_, 3
	octave 3
	note A_, 2
	octave 4
	note A_, 8
;Bar 44
	note A#, 8
	rest 4
	sound_jump Music_MistraltonCity_Ch2

; ============================================================================================================

Music_MistraltonCity_Ch3:
	note_type 6, 1, 6
;Bar 1
	rest 1
	rest 16
	rest 3
	octave 2
	note B_, 2
	note B_, 2
	octave 1
Music_MistraltonCity_Ch3_loop:
	volume_envelope 1, 6
	note B_, 4
	note B_, 2
	rest 2
;Bar 2
	octave 2
	note B_, 1
	rest 3
	octave 1
	note B_, 2
	rest 2
	octave 2
	note B_, 1
	rest 3
	octave 1
	note B_, 2
	rest 2
	octave 2
	note B_, 1
	rest 3
	octave 1
	note B_, 2
	rest 2
	octave 2
	note B_, 1
	rest 3
	octave 1
	note B_, 2
	rest 2
;Bar 3
	octave 2
	note B_, 1
	rest 3
	octave 1
	note B_, 2
	rest 2
	octave 2
	note B_, 1
	rest 3
	octave 1
	note B_, 2
	rest 2
	octave 2
	note B_, 1
	rest 3
	note G_, 2
	note G_, 2
	note D_, 4
	octave 1
	note G_, 4
;Bar 4
	octave 2
	note G_, 1
	rest 3
	note B_, 4
	note G_, 1
	rest 3
	octave 1
	note G_, 4
	octave 2
	note G_, 1
	rest 3
	note B_, 4
	note G_, 1
	rest 3
	octave 1
	note G_, 4
;Bar 5
	octave 2
	note G_, 1
	rest 3
	note B_, 4
	note G_, 1
	rest 3
	octave 1
	note G_, 4
	octave 2
	note G_, 1
	rest 3
	note E_, 4
	note B_, 4
	octave 1
	note B_, 1
	rest 3
;Bar 6
	note B_, 4
	octave 2
	note B_, 1
	rest 3
	octave 1
	note B_, 2
	octave 2
	note B_, 1
	rest 1
	octave 1
	note B_, 2
	rest 2
	octave 2
	note B_, 4
	note A#, 1
	rest 3
	note B_, 4
	note F#, 1
	rest 3
;Bar 7
	octave 1
	note B_, 4
	octave 2
	note B_, 1
	rest 3
	octave 1
	note B_, 2
	octave 2
	note B_, 1
	rest 1
	octave 1
	note B_, 3
	rest 1
	octave 2
	note B_, 2
	rest 2
	note B_, 4
	note E_, 4
	octave 1
	note G_, 1
	rest 3
;Bar 8
	note G_, 4
	octave 2
	note E_, 1
	rest 3
	octave 1
	note G_, 2
	octave 2
	note E_, 1
	rest 1
	octave 1
	note G_, 4
	note E_, 2
	rest 2
	octave 2
	note E_, 1
	rest 1
	note E_, 1
	rest 1
	note E_, 4
	octave 3
	note E_, 2
	rest 2
;Bar 9
	octave 2
	note E_, 2
	note B_, 1
	rest 1
	octave 1
	note B_, 4
	note G_, 4
	octave 2
	note G_, 1
	rest 3
	note D_, 4
	octave 3
	note G_, 2
	rest 2
	octave 2
	note F#, 1
	rest 3
	note F#, 4
;Bar 10
	octave 3
	note F#, 1
	rest 3
	octave 2
	note F#, 1
	rest 3
	note F#, 1
	rest 3
	note F#, 1
	rest 3
	note F#, 1
	rest 3
	note F#, 1
	rest 3
	note F#, 1
	rest 3
	note F#, 4
;Bar 11
	octave 3
	note F#, 1
	rest 3
	octave 2
	note F#, 1
	rest 3
	note F#, 1
	rest 3
	note F#, 1
	rest 3
	note F#, 1
	rest 3
	note F#, 1
	rest 3
	note F#, 1
	rest 3
	note F#, 4
;Bar 12
	octave 3
	note F#, 1
	rest 3
	octave 2
	note F#, 1
	rest 3
	note F#, 1
	rest 3
	note F#, 1
	rest 1
	note F#, 1
	rest 1
	octave 3
	note C_, 2
	note C#, 2
	octave 2
	note F#, 1
	rest 3
	note F#, 1
	rest 1
	note F#, 1
	rest 1
	note F#, 4
;Bar 13
	octave 3
	note F#, 1
	rest 1
	note F#, 1
	rest 1
	octave 2
	note F#, 1
	rest 1
	octave 3
	note F#, 1
	rest 1
	octave 2
	note F#, 1
	rest 1
	octave 3
	note F#, 1
	rest 1
	octave 2
	note F#, 1
	rest 1
	octave 3
	note F#, 1
	rest 1
	note G_, 1
	rest 1
	note E_, 1
	rest 1
	octave 2
	note F#, 1
	rest 1
	octave 3
	note F#, 1
	rest 1
	octave 1
	note B_, 6
	octave 2
	note F#, 2
;Bar 14
	note B_, 2
	rest 4
	note F#, 2
	note D#, 1
	rest 1
	note F#, 2
	note B_, 1
	rest 1
	note F#, 1
	rest 1
	octave 1
	note B_, 5
	rest 1
	octave 2
	note B_, 1
	rest 1
	octave 1
	note B_, 2
	rest 2
	octave 2
	note B_, 1
	rest 7
;Bar 15
	octave 3
	note C#, 2
	note D#, 2
	octave 1
	note B_, 5
	rest 1
	note B_, 1
	rest 1
	note B_, 1
	rest 1
	note B_, 1
	rest 1
	octave 2
	note F#, 1
	rest 1
	octave 3
	note C#, 2
	note D_, 2
	rest 4
	octave 2
	note A_, 1
	rest 1
;Bar 16
	octave 3
	note D_, 4
	rest 2
	octave 2
	note A_, 1
	rest 1
	note F#, 1
	rest 1
	note A_, 1
	rest 1
	octave 3
	note D_, 1
	rest 1
	octave 2
	note A_, 1
	rest 1
	note D_, 4
	rest 2
	octave 3
	note C#, 1
	rest 1
	octave 2
	note D_, 4
	note A_, 2
	octave 3
	note D_, 2
;Bar 17
	octave 2
	note A_, 2
	rest 2
	note F#, 2
	note D_, 2
	note D_, 2
	octave 3
	note D_, 1
	rest 1
	octave 2
	note D_, 4
	note D_, 2
	octave 3
	note F#, 1
	rest 1
	octave 2
	note G_, 1
	rest 1
	note C_, 2
	octave 1
	note B_, 6
	octave 2
	note B_, 2
;Bar 18
	octave 3
	note D#, 2
	rest 4
	octave 2
	note F#, 1
	rest 1
	note D#, 1
	rest 1
	note F#, 1
	rest 1
	note B_, 1
	rest 1
	note F#, 1
	rest 1
	octave 1
	note B_, 4
	rest 2
	octave 2
	note A#, 1
	rest 1
	note F#, 2
	rest 2
	note B_, 1
	rest 11
;Bar 19
	note B_, 2
	rest 6
	note C#, 1
	rest 1
	note C#, 1
	rest 1
	octave 1
	note B_, 1
	rest 1
	octave 2
	note C#, 1
	rest 1
	note D_, 6
	note A_, 1
	rest 1
;Bar 20
	octave 3
	note D_, 4
	rest 2
	octave 2
	note A_, 1
	rest 1
	note F#, 1
	rest 1
	note A_, 1
	rest 1
	octave 3
	note D_, 1
	rest 1
	octave 2
	note A_, 1
	rest 1
	note D_, 4
	rest 2
	octave 3
	note C#, 1
	rest 1
	octave 2
	note A_, 2
	rest 2
	octave 3
	note D_, 1
	rest 5
;Bar 21
	note D_, 2
	octave 2
	note D_, 1
	rest 3
	octave 3
	note D_, 2
	note D_, 6
	rest 8
	note C#, 2
	rest 4
	octave 2
	note G#, 1
	rest 1
;Bar 22
	octave 3
	note C#, 4
	rest 2
	octave 2
	note G#, 1
	rest 1
	note F_, 1
	rest 1
	note G#, 1
	rest 1
	octave 3
	note C#, 1
	rest 1
	octave 2
	note G#, 1
	rest 1
	note C#, 4
	rest 2
	octave 3
	note C_, 1
	rest 1
	octave 2
	note G#, 2
	rest 2
	octave 3
	note C#, 1
	rest 11
;Bar 23
	note C#, 2
	note C#, 6
	rest 8
	octave 2
	note D_, 3
	rest 3
	note F#, 2
;Bar 24
	octave 3
	note D_, 4
	rest 2
	note C#, 1
	rest 1
	octave 2
	note D_, 2
	note A_, 1
	rest 1
	octave 3
	note D_, 1
	rest 1
	octave 2
	note A_, 1
	rest 1
	note D_, 4
	rest 2
	octave 3
	note C#, 1
	rest 1
	octave 2
	note A_, 2
	octave 3
	note D_, 6
;Bar 25
	octave 2
	note A_, 2
	rest 2
	note D_, 2
	rest 2
	note A_, 2
	note D_, 6
	note C#, 2
	rest 2
	note C_, 2
	note C#, 2
	note D_, 6
	note A_, 1
	rest 1
;Bar 26
	octave 3
	note D_, 4
	rest 2
	octave 2
	note A_, 1
	rest 1
	note F#, 1
	rest 1
	note A_, 1
	rest 1
	octave 3
	note D_, 1
	rest 1
	octave 2
	note A_, 1
	rest 1
	note D_, 4
	rest 2
	octave 3
	note C#, 1
	rest 1
	octave 2
	note A_, 2
	rest 2
	octave 3
	note D_, 1
	rest 11
;Bar 27
	note C#, 1
	rest 3
	octave 2
	note A_, 2
	rest 2
	note F#, 2
	rest 2
	note D_, 2
	rest 2
	note F#, 6
	octave 3
	note C#, 1
	rest 1
;Bar 28
	note F#, 4
	note C#, 4
	octave 2
	note A#, 1
	rest 1
	octave 3
	note C#, 1
	rest 1
	note F#, 1
	rest 1
	note C#, 1
	rest 1
	octave 2
	note F#, 4
	rest 2
	octave 3
	note F_, 1
	rest 1
	octave 2
	note F#, 3
	rest 1
	octave 3
	note D_, 1
	rest 1
	note E_, 2
;Bar 29
	rest 2
	note E_, 4
	note D_, 1
	rest 1
	note E_, 2
	rest 2
	octave 2
	note C#, 10
	rest 2
	octave 1
	note B_, 4
	rest 2
	octave 2
	volume_envelope 1, 15
	note A#, 2
;Bar 30
	note B_, 2
	rest 4
	octave 1
	note B_, 2
	note B_, 1
	rest 1
	note B_, 1
	rest 1
	octave 2
	note F#, 2
	rest 2
	octave 1
	note B_, 1
	rest 1
	note B_, 1
	rest 1
	octave 2
	note D#, 2
	rest 2
	octave 1
	note B_, 3
	rest 1
	octave 2
	note B_, 1
	rest 1
	octave 1
	note B_, 2
;Bar 31
	note B_, 2
	note B_, 2
	note B_, 2
	note B_, 1
	note B_, 1
	octave 2
	note B_, 2
	octave 1
	note B_, 2
	note B_, 2
	note B_, 2
	note B_, 2
	note B_, 2
	octave 2
	note B_, 2
	octave 1
	note B_, 1
	note B_, 1
	octave 2
	note D_, 4
	note D_, 2
	note A_, 1
	rest 1
;Bar 32
	octave 3
	note D_, 2
	rest 2
	octave 2
	note D_, 2
	note D_, 2
	note D_, 2
	note D_, 2
	note A_, 2
	rest 2
	note D_, 2
	rest 2
	octave 1
	note A_, 2
	rest 2
	octave 2
	note D_, 4
	octave 3
	note D_, 1
	rest 1
	octave 2
	note D_, 2
;Bar 33
	note D_, 2
	octave 3
	note D_, 2
	octave 2
	note D_, 1
	rest 1
	note D_, 1
	rest 1
	octave 3
	note D_, 2
	rest 2
	octave 2
	note A_, 2
	rest 2
	note D_, 2
	rest 2
	octave 1
	note A#, 2
	rest 2
	note B_, 5
	rest 1
	octave 2
	note F#, 1
	rest 1
;Bar 34
	note B_, 2
	rest 2
	octave 1
	note B_, 2
	note B_, 2
	note B_, 2
	octave 2
	note B_, 2
	octave 1
	note B_, 2
	octave 2
	note B_, 2
	note D#, 2
	rest 2
	octave 1
	note B_, 2
	rest 2
	note F#, 4
	octave 2
	note B_, 1
	rest 1
	octave 1
	note B_, 2
;Bar 35
	note B_, 1
	rest 1
	note B_, 2
	note B_, 1
	rest 1
	note B_, 2
	octave 2
	note B_, 2
	rest 2
	note F#, 2
	rest 2
	octave 1
	note B_, 2
	note B_, 2
	octave 2
	note B_, 2
	rest 2
	note D_, 4
	rest 2
	note D_, 1
	rest 1
;Bar 36
	note D_, 1
	rest 1
	note D_, 1
	rest 1
	octave 3
	note D_, 2
	rest 2
	octave 2
	note D_, 1
	rest 1
	note D_, 2
	note D_, 2
	note D_, 2
	note F#, 2
	rest 2
	note D_, 2
	rest 2
	octave 1
	note A_, 6
	octave 3
	note D_, 1
	rest 1
;Bar 37
	octave 1
	note A_, 2
	octave 3
	note D_, 2
	octave 2
	note D_, 4
	note A_, 2
	rest 2
	note F#, 2
	rest 2
	note D_, 2
	rest 2
	note A_, 2
	rest 2
	note C#, 2
	octave 3
	note C#, 2
	octave 2
	note C#, 2
	octave 3
	note C#, 2
;Bar 38
	note C#, 2
	rest 4
	octave 2
	note G#, 1
	rest 1
	note F_, 1
	rest 1
	note C#, 2
	octave 3
	note C#, 1
	rest 1
	octave 2
	note C#, 2
	octave 1
	note G#, 4
	rest 2
	octave 3
	note C_, 1
	rest 1
	octave 1
	note G#, 4
	octave 3
	note C#, 1
	rest 3
;Bar 39
	note C#, 2
	rest 2
	octave 2
	note G#, 2
	rest 2
	note F_, 2
	rest 2
	note G#, 2
	rest 6
	octave 3
	note C#, 2
	rest 2
	note D_, 2
	octave 2
	note D_, 4
	octave 3
	note C_, 1
	rest 1
;Bar 40
	octave 2
	note F#, 2
	rest 2
	note D_, 2
	rest 2
	octave 1
	note A_, 4
	note A_, 2
	note A_, 2
	octave 2
	note D_, 2
	note D_, 2
	note D_, 1
	rest 1
	note D_, 2
	octave 1
	note A_, 4
	octave 3
	note D_, 1
	rest 5
;Bar 41
	note D_, 2
	octave 1
	note A_, 2
	rest 2
	note A_, 2
	note B_, 2
	octave 2
	note D_, 2
	rest 2
	note F#, 2
	rest 2
	octave 1
	note A_, 2
	rest 2
	octave 2
	note D_, 4
	note D_, 2
	note D_, 2
;Bar 42
	octave 3
	note D_, 2
	rest 2
	octave 2
	note D_, 2
	note D_, 2
	note D_, 1
	rest 1
	note D_, 2
	note D_, 1
	rest 1
	note D_, 2
	note F#, 2
	rest 2
	octave 1
	note A_, 2
	rest 2
	octave 2
	note F#, 2
	rest 2
	octave 1
	note A_, 2
	note A_, 2
;Bar 43
	octave 2
	note A_, 2
	rest 2
	note D#, 2
	rest 2
	octave 3
	note D_, 2
	rest 2
	octave 2
	note F#, 2
	rest 2
	note D_, 1
	rest 1
	note D_, 2
	note D_, 1
	rest 1
	note D_, 2
	note F#, 2
	rest 2
	octave 1
	note A_, 1
	rest 1
	note A_, 1
	rest 1
;Bar 44
	octave 2
	note F#, 2
	rest 2
	octave 1
	note A_, 1
	rest 1
	note A_, 1
	rest 1
	octave 2
	note F#, 2
	rest 2
	octave 1
	note A_, 1
	rest 1
	note A_, 1
	rest 1
	octave 2
	note F#, 2
	rest 2
	note A#, 2
	rest 2
	octave 3
	note F#, 2
	rest 2
	octave 2
	note F#, 2
	rest 2
;Bar 45
	octave 1
	note B_, 2
	octave 3
	note F#, 2
	octave 1
	note B_, 2
	octave 3
	note F#, 2
	octave 2
	note F#, 2
	octave 3
	note E_, 2
	octave 2
	note F#, 4
	octave 3
	note E_, 8
	sound_jump Music_MistraltonCity_Ch3_loop

; ============================================================================================================

Music_MistraltonCity_Ch4:
	toggle_noise 3
	drum_speed 6
;Bar 1
	drum_note 1, 2
	drum_note 1, 2
	drum_note 7, 4
	drum_note 12, 4
	drum_note 7, 2
	drum_note 11, 2
	drum_note 11, 4
	drum_note 7, 2
	drum_note 7, 2
Music_MistraltonCity_Ch4_loop:
	drum_note 12, 4
	drum_note 7, 4
;Bar 2
	sound_call Music_MistraltonCity_Ch4_Bar2
;Bar 3
	sound_call Music_MistraltonCity_Ch4_Bar3
;Bar 4
	sound_call Music_MistraltonCity_Ch4_Bar2
;Bar 5
	sound_call Music_MistraltonCity_Ch4_Bar3
;Bar 6
	sound_call Music_MistraltonCity_Ch4_Bar2
;Bar 7
	sound_call Music_MistraltonCity_Ch4_Bar3
;Bar 8
	sound_call Music_MistraltonCity_Ch4_Bar2
;Bar 9
	drum_note 11, 2
	drum_note 2, 2
	drum_note 7, 4
	drum_note 11, 2
	drum_note 11, 2
	drum_note 7, 2
	drum_note 11, 2
	drum_note 11, 2
	drum_note 2, 2
	drum_note 12, 4
	drum_note 12, 8
;Bar 10
	drum_note 11, 4
	drum_note 1, 2
	drum_note 1, 2
	drum_note 11, 4
	drum_note 11, 4
	drum_note 11, 4
	drum_note 11, 4
	drum_note 12, 4
	drum_note 11, 4
;Bar 11
	drum_note 11, 4
	drum_note 12, 4
	drum_note 11, 4
	drum_note 11, 4
	drum_note 11, 4
	drum_note 11, 4
	drum_note 12, 4
	drum_note 11, 4
;Bar 12
	drum_note 11, 4
	drum_note 12, 4
	drum_note 11, 4
	drum_note 1, 1
	drum_note 1, 1
	drum_note 1, 2
	drum_note 11, 4
	drum_note 11, 4
	drum_note 1, 2
	drum_note 1, 2
	drum_note 2, 2
	drum_note 2, 2
;Bar 13
	drum_note 2, 2
	drum_note 2, 2
	drum_note 1, 2
	drum_note 1, 4
	drum_note 1, 2
	drum_note 11, 2
	drum_note 11, 2
	drum_note 11, 2
	drum_note 11, 2
	drum_note 11, 2
	drum_note 11, 2
	drum_note 12, 6
	drum_note 11, 2
;Bar 14
	drum_note 11, 4
	drum_note 2, 2
	drum_note 1, 2
	drum_note 11, 2
	drum_note 2, 2
	drum_note 7, 4
	drum_note 1, 2
	drum_note 2, 2
	drum_note 2, 2
	drum_note 11, 2
	drum_note 11, 2
	drum_note 2, 2
	drum_note 11, 2
	drum_note 2, 2
;Bar 15
	sound_call Music_MistraltonCity_Ch4_Bar15
;Bar 16
	sound_call Music_MistraltonCity_Ch4_Bar16
;Bar 17
	drum_note 1, 1
	drum_note 1, 3
	drum_note 1, 2
	drum_note 2, 2
	drum_note 11, 2
	drum_note 1, 1
	drum_note 1, 1
	drum_note 7, 4
	drum_note 11, 2
	drum_note 2, 2
	drum_note 1, 2
	drum_note 1, 2
	drum_note 12, 8
;Bar 18
	sound_call Music_MistraltonCity_Ch4_Bar18
;Bar 19
	sound_call Music_MistraltonCity_Ch4_Bar15
;Bar 20
	sound_call Music_MistraltonCity_Ch4_Bar18
;Bar 21
	drum_note 1, 2
	drum_note 11, 2
	drum_note 2, 2
	drum_note 11, 2
	drum_note 11, 2
	drum_note 2, 2
	drum_note 7, 4
	drum_note 1, 2
	drum_note 2, 2
	drum_note 7, 2
	drum_note 11, 2
	drum_note 11, 2
	drum_note 2, 2
	drum_note 2, 2
	drum_note 2, 2
;Bar 22
	sound_call Music_MistraltonCity_Ch4_Bar18
;Bar 23
	sound_call Music_MistraltonCity_Ch4_Bar15
;Bar 24
	sound_call Music_MistraltonCity_Ch4_Bar16
;Bar 25
	drum_note 1, 3
	drum_note 1, 1
	drum_note 1, 2
	drum_note 2, 2
	drum_note 11, 2
	drum_note 1, 2
	drum_note 7, 3
	drum_note 1, 1
	drum_note 1, 2
	drum_note 2, 2
	drum_note 1, 2
	drum_note 11, 2
	drum_note 12, 8
;Bar 26
	sound_call Music_MistraltonCity_Ch4_Bar18
;Bar 27
	sound_call Music_MistraltonCity_Ch4_Bar15
;Bar 28
	sound_call Music_MistraltonCity_Ch4_Type1
	drum_note 11, 4
	drum_note 1, 2
	drum_note 12, 10
;Bar 29
	drum_note 12, 4
	drum_note 12, 12
	drum_note 12, 8
;Bar 30
	sound_call Music_MistraltonCity_Ch4_Bar18
;Bar 31
	sound_call Music_MistraltonCity_Ch4_Bar15
;Bar 32
	sound_call Music_MistraltonCity_Ch4_Type1
	drum_note 11, 2
	drum_note 2, 2
	drum_note 1, 2
	drum_note 2, 2
;Bar 33
	drum_note 11, 2
	drum_note 1, 2
	drum_note 2, 2
	drum_note 11, 2
	drum_note 11, 2
	drum_note 2, 2
	drum_note 7, 4
	drum_note 1, 2
	drum_note 2, 2
	drum_note 1, 2
	drum_note 1, 2
	drum_note 12, 8
;Bar 34
	sound_call Music_MistraltonCity_Ch4_Bar18
;Bar 35
	sound_call Music_MistraltonCity_Ch4_Bar15
;Bar 36
	sound_call Music_MistraltonCity_Ch4_Type1
	drum_note 11, 2
	drum_note 2, 2
	drum_note 2, 2
	drum_note 11, 2
;Bar 37
	drum_note 1, 2
	drum_note 11, 2
	drum_note 2, 2
	drum_note 1, 2
	drum_note 11, 2
	drum_note 2, 2
	drum_note 7, 3
	drum_note 1, 1
	drum_note 1, 2
	drum_note 2, 2
	drum_note 1, 4
	drum_note 12, 8
;Bar 38
	sound_call Music_MistraltonCity_Ch4_Bar18
;Bar 39
	sound_call Music_MistraltonCity_Ch4_Bar15
;Bar 40
	sound_call Music_MistraltonCity_Ch4_Bar18
;Bar 41
	drum_note 1, 2
	drum_note 11, 2
	drum_note 2, 2
	drum_note 1, 2
	drum_note 11, 2
	drum_note 2, 2
	drum_note 7, 4
	drum_note 1, 2
	drum_note 2, 2
	drum_note 7, 2
	drum_note 11, 2
	drum_note 11, 2
	drum_note 2, 2
	drum_note 2, 2
	drum_note 2, 2
;Bar 42
	sound_call Music_MistraltonCity_Ch4_Bar18
;Bar 43
	drum_note 1, 2
	drum_note 11, 2
	drum_note 2, 2
	drum_note 11, 2
	drum_note 11, 2
	drum_note 2, 2
	drum_note 7, 4
	drum_note 1, 1
	drum_note 1, 1
	drum_note 2, 2
	drum_note 1, 2
	drum_note 11, 2
	drum_note 11, 2
	drum_note 2, 2
	drum_note 2, 2
	drum_note 2, 2
;Bar 44
	sound_call Music_MistraltonCity_Ch4_Type1
	drum_note 11, 4
	drum_note 11, 4
;Bar 45
	drum_note 11, 4
	drum_note 11, 2
	drum_note 11, 2
	drum_note 1, 2
	drum_note 1, 2
	drum_note 11, 4
	drum_note 1, 2
	drum_note 1, 2
	drum_note 11, 2
	drum_note 11, 2
	sound_jump Music_MistraltonCity_Ch4_loop

Music_MistraltonCity_Ch4_Bar2:
	drum_note 11, 2;
	drum_note 2, 2
	drum_note 7, 4
	drum_note 11, 2
	drum_note 2, 2
	drum_note 7, 4
	drum_note 11, 2
	drum_note 2, 2
	drum_note 7, 4
	drum_note 11, 2
	drum_note 2, 2
	drum_note 7, 4
	sound_ret

Music_MistraltonCity_Ch4_Bar3:
	drum_note 11, 2;
	drum_note 2, 2
	drum_note 7, 4
	drum_note 11, 2
	drum_note 11, 2
	drum_note 7, 2
	drum_note 11, 2
	drum_note 11, 2
	drum_note 2, 2
	drum_note 7, 2
	drum_note 7, 2
	drum_note 12, 4
	drum_note 7, 4
	sound_ret

Music_MistraltonCity_Ch4_Bar15:
	drum_note 1, 2;
	drum_note 11, 2
	drum_note 2, 2
	drum_note 11, 2
	drum_note 11, 2
	drum_note 2, 2
	drum_note 7, 4
	drum_note 1, 2
	drum_note 2, 2
	drum_note 2, 2
	drum_note 11, 2
	drum_note 11, 2
	drum_note 2, 2
	drum_note 2, 2
	drum_note 2, 2
	sound_ret

Music_MistraltonCity_Ch4_Bar16:
	drum_note 1, 4;
	drum_note 2, 2
	drum_note 11, 2
	drum_note 11, 2
	drum_note 2, 2
	drum_note 7, 4
	drum_note 1, 2
	drum_note 2, 2
	drum_note 2, 2
	drum_note 11, 2
	drum_note 11, 2
	drum_note 1, 2
	drum_note 2, 2
	drum_note 2, 2
	sound_ret

Music_MistraltonCity_Ch4_Bar18:
	drum_note 1, 4;
	drum_note 2, 2
	drum_note 11, 2
	drum_note 11, 2
	drum_note 2, 2
	drum_note 7, 4
	drum_note 1, 2
	drum_note 2, 2
	drum_note 2, 2
	drum_note 11, 2
	drum_note 11, 2
	drum_note 2, 2
	drum_note 11, 2
	drum_note 2, 2
	sound_ret

Music_MistraltonCity_Ch4_Type1:
	drum_note 1, 4;
	drum_note 2, 2
	drum_note 11, 2
	drum_note 11, 2
	drum_note 2, 2
	drum_note 7, 4
	drum_note 1, 2
	drum_note 2, 2
	drum_note 2, 2
	drum_note 11, 2
	sound_ret