Music_UnovaRoute6:
	channel_count 4
	channel 1, Music_UnovaRoute6_Ch1
	channel 2, Music_UnovaRoute6_Ch2
	channel 3, Music_UnovaRoute6_Ch3
	channel 4, Music_UnovaRoute6_Ch4

Music_UnovaRoute6_Ch1:
	tempo $98
	volume 7, 7
	stereo_panning TRUE, TRUE
        pitch_offset 1
	duty_cycle 2
	octave 3
	note_type 12, 0, 0
	note C_, 2
Music_UnovaRoute6_Ch1_loop:
	volume_envelope 10, 7
        octave 3
	note C_, 6
	note C_, 1
	note C#, 1
	note D#, 8
	note F_, 6
	note D#, 1
	note F_, 1
	note G_, 4
	note A#, 4
	note G#, 8
	note D#, 8
	note G_, 6
	note G#, 1
	rest 1
	note F_, 4
	note D#, 4
	volume_envelope 10, 2
	octave 4
	note C#, 2
	note C#, 1
	rest 3
	octave 3
	note A#, 1
	octave 4
	note C#, 1
	note D#, 2
	octave 3
	note A#, 1
	note G_, 1
	note A#, 1
	note G_, 1
	note A#, 1
	octave 4
	note D#, 1
	note C_, 2
	note C_, 1
	rest 3
	octave 3
	note G#, 1
	octave 4
	note C_, 1
	note F_, 2
	octave 3
	note G#, 1
	note F_, 1
	note G#, 1
	note F_, 1
	note G#, 1
	octave 4
	note C_, 1
	volume_envelope 10, 8
	note C#, 6
	volume_envelope 10, 7
	note C#, 8
	octave 3
	note A#, 1
	note B_, 1
	volume_envelope 10, 8
	octave 4
	note C#, 6
	volume_envelope 10, 7
	note C#, 6
	octave 3
	note G#, 4
	volume_envelope 10, 8
	octave 4
	note C#, 8
	volume_envelope 10, 7
	note C#, 6
	rest 2
	volume_envelope 10, 2
	octave 3
	note G#, 2
	volume_envelope 10, 1
	note G#, 1
	note G#, 1
	octave 4
	note C#, 1
	note C#, 1
	note F_, 1
	note G#, 1
	octave 5
	note C#, 1
	note C#, 1
	octave 4
	note G#, 1
	note F_, 1
	note G_, 1
	note D_, 1
	octave 3
	note E_, 1
	note D_, 1
	volume_envelope 10, 3
	note E_, 2
	volume_envelope 10, 2
	note E_, 1
	rest 3
	volume_envelope 10, 3
	note C_, 2
	volume_envelope 10, 7
	note C_, 4
	note C_, 2
	note E_, 2
	note F_, 2
	volume_envelope 10, 2
	note C_, 1
	rest 3
	volume_envelope 10, 7
	note F_, 2
	note G_, 4
	note D_, 2
	octave 4
	note E_, 1
	note D_, 1
	volume_envelope 7, 7
	note E_, 4
        octave 3
	note A_, 4
        octave 4
	note C_, 4
	octave 3
	note B_, 4
	note A_, 2
	note F_, 4
	note A_, 1
	octave 4
	note E_, 1
	note D_, 4
	octave 3
	note A_, 2
	volume_envelope 10, 2
	note E_, 1
	note D#, 1
	note A_, 1
	rest 1
	note A_, 1
	rest 3
	note A_, 1
	note A_, 1
	note G#, 1
	rest 1
	note G#, 1
	rest 3
	note G#, 1
	rest 1
	note G_, 1
	rest 1
	note G_, 1
	rest 3
	note G_, 1
	note G_, 1
	note F#, 1
	rest 1
	note F#, 1
	rest 3
	note E_, 1
	rest 1
	note F_, 1
	rest 1
	note F_, 1
	rest 3
	note F_, 1
	note F_, 1
	note F_, 1
	rest 1
	note F_, 1
	rest 3
	note F_, 1
	rest 1
	note G_, 1
	rest 1
	note G_, 1
	rest 3
	note G_, 1
	note G_, 1
	note G_, 1
	rest 1
	note G_, 1
	rest 1
	volume_envelope 10, 7
	note F_, 4
	note D#, 8
	note C#, 4
	octave 2
	note A#, 4
	sound_jump Music_UnovaRoute6_Ch1_loop

Music_UnovaRoute6_Ch2:
        pitch_offset 2
	octave 3
	note_type 12, 12, 7
	note D#, 1
	note C#, 1
Music_UnovaRoute6_Ch2_loop:
        note_type 12, 12, 7
	note C_, 4
	note D#, 4
	note G#, 4
	octave 4
	note C_, 4
	octave 3
	note A#, 1
	rest 1
	note F_, 4
	note G#, 1
	rest 1
	note G_, 6
	note D#, 1
	note C#, 1
	note C_, 4
	note D#, 4
	note G#, 4
	octave 4
	note C_, 4
	note D#, 6
	note F_, 1
	rest 1
	volume_envelope 6, -7
	octave 3
	note G#, 4
	volume_envelope 12, 8
	note G#, 4
	duty_cycle 3
	volume_envelope 12, 7
	octave 4
	note F_, 6
	note D#, 1
	note F_, 1
	volume_envelope 12, 8
	note G_, 2
	volume_envelope 12, 7
	note G_, 6
	note A#, 6
	note A#, 1
	octave 5
	note C_, 1
	octave 4
	note G#, 4
	note G_, 4
	volume_envelope 12, 8
	note F_, 6
	volume_envelope 12, 7
	vibrato 0, 3, 3
	note F_, 8
	vibrato 0, 0, 0
	note D#, 1
	note F_, 1
	volume_envelope 12, 8
	note F#, 6
	volume_envelope 12, 7
	vibrato 0, 3, 3
	note F#, 6
	vibrato 0, 0, 0
	note D#, 4
	volume_envelope 6, -7
	note G#, 4
	volume_envelope 12, 8
	vibrato 0, 3, 3
	note G#, 6
	volume_envelope 12, 7
	note G#, 6
	vibrato 0, 0, 0
	note C#, 6
	note C#, 1
	note F_, 1
	note G#, 4
	note G_, 4
	duty_cycle 0
	octave 3
	note C_, 4
	note E_, 4
	note G_, 4
	octave 4
	note C_, 4
	octave 3
	note A_, 1
	rest 1
	note F_, 4
	note A_, 1
	rest 1
	note B_, 4
	note G_, 4
	duty_cycle 3
	octave 4
	note C_, 4
	note E_, 4
	note G_, 4
	octave 5
	note C_, 4
	octave 4
	note A_, 1
	rest 1
	note F_, 4
	note A_, 1
	rest 1
	note G_, 8
	octave 3
	note E_, 4
	note E_, 4
	note A_, 6
	volume_envelope 12, 2
	note B_, 1
	rest 1
	octave 4
	note C_, 1
	rest 1
	octave 3
	note A_, 1
	rest 1
	octave 4
	note C_, 1
	rest 1
	note E_, 1
	rest 1
	volume_envelope 12, 7
	note A_, 6
	note C_, 1
	octave 3
	note B_, 1
	volume_envelope 12, 5
	note A_, 4
	rest 2
	volume_envelope 12, 2
	note A_, 1
	note B_, 1
	octave 4
	note C_, 1
	rest 1
	octave 3
	note A_, 1
	rest 1
	octave 4
	note C_, 1
	rest 1
	note F_, 1
	rest 1
	volume_envelope 12, 8
	note E_, 6
	volume_envelope 12, 7
	note E_, 6
	duty_cycle 0
	note D_, 4
	note C_, 8
	octave 3
	note D#, 4
	note G_, 4
	sound_jump Music_UnovaRoute6_Ch2_loop

Music_UnovaRoute6_Ch3:
	octave 2
	note_type 12, 0, 0
	note G#, 2
Music_UnovaRoute6_Ch3_loop:
	duty_cycle 6
	volume_envelope 1, 6
        octave 2
	note G#, 6
	note G#, 1
	note A#, 1
	octave 3
	note C_, 8
	note C#, 6
	note C_, 1
	note C#, 1
	note D#, 4
	note E_, 4
	note F_, 8
	note C_, 8
	note C#, 8
	note C#, 4
	note C_, 4
	octave 2
	note A#, 2
	rest 2
	note F_, 2
	rest 2
	octave 3
	note D#, 2
	rest 2
	note C#, 2
	rest 2
	note C_, 2
	rest 2
	octave 2
	note G_, 2
	rest 2
	octave 3
	note F_, 2
	rest 2
	note D#, 2
	rest 2
	note C#, 2
	rest 2
	octave 2
	note G#, 2
	rest 2
	octave 3
	note C#, 2
	rest 2
	octave 2
	note G#, 2
	rest 2
	octave 3
	note F#, 2
	rest 2
	note C#, 2
	rest 2
	octave 2
	note F#, 2
	rest 2
	octave 3
	note F#, 4
	octave 4
	note C#, 2
	rest 2
	octave 3
	note G#, 2
	rest 2
	octave 4
	note F_, 2
	rest 2
	octave 3
	note G#, 2
	rest 2
	octave 4
	note C#, 2
	rest 2
	octave 3
	note G#, 2
	rest 2
	octave 4
	note C#, 2
	rest 2
	octave 2
	note G_, 4
	octave 3
	note C_, 2
	note C_, 1
	rest 5
	note E_, 4
	note D_, 2
	note E_, 2
	note F_, 2
	note F_, 1
	rest 5
	note G_, 4
	note G#, 4
	note A_, 4
	note G#, 4
	note G_, 4
	note F#, 4
	note F_, 2
	note D_, 4
	note F_, 1
	note F#, 1
	note G_, 4
	note G#, 2
	note G_, 2
	note A_, 2
	rest 2
	note E_, 2
	rest 2
	note G#, 2
	rest 2
	note E_, 2
	rest 2
	note G_, 2
	rest 2
	note E_, 2
	rest 2
	note F#, 2
	rest 2
	note D_, 2
	rest 2
	note F_, 2
	rest 2
	note C_, 2
	rest 2
	note F_, 2
	rest 2
	note C_, 2
	rest 2
	note G_, 2
	rest 2
	note D_, 2
	rest 2
	octave 2
	note G_, 2
	rest 2
	octave 3
	note D_, 2
	rest 2
	octave 2
	note G#, 2
	rest 2
	octave 3
	note D#, 2
	rest 2
	octave 2
	note A#, 2
	rest 2
	octave 3
	note D#, 2
	rest 2
	sound_jump Music_UnovaRoute6_Ch3_loop

Music_UnovaRoute6_Ch4:
        toggle_noise 0
	drum_speed 12
	rest 2
Music_UnovaRoute6_Ch4_loop:
	drum_speed 12
	drum_note 9, 6
	drum_note 4, 1
	drum_note 4, 1
	drum_note 4, 8
	drum_note 9, 6
	drum_note 4, 1
	drum_note 4, 1
	drum_note 4, 4
	drum_note 9, 4
	drum_note 9, 6
	drum_note 4, 1
	drum_note 4, 1
	drum_note 4, 4
	drum_note 4, 2
	drum_note 4, 1
	drum_note 4, 1
	drum_note 9, 6
	drum_note 4, 1
	drum_note 4, 1
	drum_note 4, 2
	drum_speed 6
	drum_note 4, 1
	drum_note 4, 1
	drum_note 4, 1
	drum_note 4, 1
	drum_note 9, 8
	drum_note 9, 4
	drum_note 4, 2
	drum_note 4, 2
	drum_note 4, 1
	drum_note 4, 1
	drum_note 4, 1
	drum_note 4, 1
	drum_note 4, 1
	drum_note 4, 1
	drum_note 4, 1
	drum_note 4, 1
	drum_note 4, 2
	drum_note 4, 2
	drum_note 4, 2
	drum_note 4, 2
	drum_note 4, 4
	drum_note 4, 2
	drum_note 4, 2
	drum_note 4, 4
	drum_note 4, 2
	drum_note 4, 2
	drum_note 4, 4
	drum_note 4, 2
	drum_note 4, 2
	drum_note 4, 1
	drum_note 4, 1
	drum_note 4, 1
	drum_note 4, 1
	drum_note 4, 2
	drum_note 4, 2
	drum_note 4, 2
	drum_note 4, 2
	drum_note 4, 2
	drum_note 4, 2
	drum_note 9, 4
	drum_note 4, 2
	drum_note 4, 2
	drum_note 4, 1
	drum_note 4, 1
	drum_note 4, 1
	drum_note 4, 1
	drum_note 4, 1
	drum_note 4, 1
	drum_note 4, 1
	drum_note 4, 1
	drum_note 4, 2
	drum_note 4, 2
	drum_note 4, 2
	drum_note 4, 2
	drum_note 4, 4
	drum_note 4, 2
	drum_note 4, 2
	drum_note 4, 4
	drum_note 4, 2
	drum_note 4, 2
	drum_note 4, 4
	drum_note 4, 2
	drum_note 4, 2
	drum_note 4, 1
	drum_note 4, 1
	drum_note 4, 1
	drum_note 4, 1
	drum_note 4, 2
	drum_note 4, 2
	drum_note 4, 2
	drum_note 4, 2
	drum_note 4, 2
	drum_note 4, 2
	drum_note 9, 4
	drum_note 4, 2
	drum_note 4, 2
	drum_note 4, 1
	drum_note 4, 1
	drum_note 4, 1
	drum_note 4, 1
	drum_note 4, 1
	drum_note 4, 1
	drum_note 4, 1
	drum_note 4, 1
	drum_note 4, 2
	drum_note 4, 2
	drum_note 4, 2
	drum_note 4, 2
	drum_note 4, 4
	drum_note 4, 2
	drum_note 4, 2
	drum_note 4, 4
	drum_note 4, 2
	drum_note 4, 2
	drum_note 4, 4
	drum_note 4, 2
	drum_note 4, 2
	drum_note 4, 1
	drum_note 4, 1
	drum_note 4, 1
	drum_note 4, 1
	drum_note 4, 2
	drum_note 4, 2
	drum_note 9, 8
	drum_note 9, 12
	drum_note 4, 2
	drum_note 4, 2
	drum_note 4, 1
	drum_note 4, 1
	drum_note 4, 1
	drum_note 4, 1
	drum_note 4, 1
	drum_note 4, 1
	drum_note 4, 1
	drum_note 4, 1
	drum_note 4, 4
	drum_note 4, 4
	drum_note 4, 4
	drum_note 4, 8
	drum_note 4, 2
	drum_note 4, 2
	drum_note 4, 1
	drum_note 4, 1
	drum_note 4, 1
	drum_note 4, 1
	drum_note 4, 1
	drum_note 4, 1
	drum_note 4, 1
	drum_note 4, 1
	drum_note 4, 4
	drum_note 4, 2
	drum_note 4, 2
	drum_note 9, 10
	rest 16
	rest 16
	rest 14
	drum_note 9, 8
	drum_note 9, 4
	drum_note 4, 4
	drum_note 4, 1
	drum_note 4, 1
	drum_note 4, 1
	drum_note 4, 1
	drum_note 4, 1
	drum_note 4, 1
	drum_note 4, 1
	drum_note 4, 1
	drum_note 4, 2
	drum_note 4, 2
	drum_note 4, 2
	drum_note 4, 2
	drum_note 4, 4
	drum_note 4, 2
	drum_note 4, 2
	drum_note 4, 4
	drum_note 4, 2
	drum_note 4, 2
	drum_note 4, 4
	drum_note 4, 2
	drum_note 4, 2
	drum_note 4, 1
	drum_note 4, 1
	drum_note 4, 1
	drum_note 4, 1
	drum_note 4, 2
	drum_note 4, 2
	drum_note 4, 2
	drum_note 4, 2
	drum_note 4, 2
	drum_note 4, 2
	drum_note 9, 4
	drum_note 4, 2
	drum_note 4, 2
	drum_note 4, 1
	drum_note 4, 1
	drum_note 4, 1
	drum_note 4, 1
	drum_note 4, 1
	drum_note 4, 1
	drum_note 4, 1
	drum_note 4, 1
	drum_note 4, 2
	drum_note 4, 2
	drum_note 4, 2
	drum_note 4, 2
	drum_note 4, 4
	drum_note 4, 2
	drum_note 4, 2
	drum_note 4, 4
	drum_note 4, 2
	drum_note 4, 2
	drum_note 4, 4
	drum_note 4, 2
	drum_note 4, 2
	drum_note 4, 1
	drum_note 4, 1
	drum_note 4, 1
	drum_note 4, 1
	drum_note 4, 2
	drum_note 4, 2
	drum_note 4, 2
	drum_note 4, 2
	drum_note 4, 2
	drum_note 4, 2
	drum_note 9, 4
	drum_note 4, 2
	drum_note 4, 2
	drum_note 4, 4
	drum_note 4, 2
	drum_note 4, 2
	drum_note 9, 4
	drum_note 4, 2
	drum_note 4, 2
	drum_note 9, 4
	drum_note 4, 2
	drum_note 4, 2
	sound_jump Music_UnovaRoute6_Ch4_loop

