Music_UnovaWildBattleNight:
	channel_count 3
	channel 1, Music_UnovaWildBattleNight_Ch1
	channel 2, Music_UnovaWildBattleNight_Ch2
	channel 3, Music_UnovaWildBattleNight_Ch3

Music_UnovaWildBattleNight_Ch1:
	tempo $65
	volume 7, 7
	stereo_panning TRUE, TRUE
        pitch_offset 1
	duty_cycle 3
	octave 4
	note_type 12, 12, 2
	note D#, 1
	note G_, 1
	note G#, 1
	octave 5
	note A#, 1
	octave 4
	note D#, 1
	note G_, 1
	note G#, 1
	octave 5
	note A#, 1
	octave 4
	note D#, 1
	note G_, 1
	note G#, 1
	octave 5
	note A#, 1
	octave 4
	note D#, 1
	note G_, 1
	note G#, 1
	octave 5
	note A#, 1
	octave 4
	note D#, 1
	note G_, 1
	note G#, 1
	octave 5
	note A#, 1
	octave 4
	note D#, 1
	note G_, 1
	note G#, 1
	octave 5
	note A#, 1
	octave 4
	note D#, 1
	note G_, 1
	note G#, 1
	octave 5
	note A#, 1
	octave 4
	note D#, 1
	note G_, 1
	note G#, 1
	octave 5
	note A#, 1
	octave 4
	note G_, 2
	rest 4
	note D#, 2
	rest 4
	note G_, 2
	rest 2
	note F_, 2
	rest 4
	note D#, 2
	rest 2
	volume_envelope 12, 7
	note D#, 2
	volume_envelope 12, 3
	note G_, 4
	volume_envelope 12, 7
	octave 2
	note G_, 8
	octave 3
	note G_, 8
	volume_envelope 12, 2
	octave 2
	note G_, 2
	rest 2
	note G_, 2
	volume_envelope 12, 7
	octave 3
	note G_, 4
	volume_envelope 12, 2
	note D#, 2
	volume_envelope 12, 1
	note G_, 1
	note G_, 1
	note G_, 1
	note G_, 1
	volume_envelope 12, 2
	octave 4
	note D#, 2
	rest 4
	note G_, 2
	rest 4
	note D#, 2
	rest 2
	note A#, 2
	rest 4
	note G#, 2
	rest 2
	volume_envelope 12, 7
	note G_, 6
	octave 3
	note C_, 8
	note A#, 8
	volume_envelope 12, 2
	note D#, 2
	note C_, 2
	note D#, 2
	volume_envelope 12, 7
	octave 4
	note D#, 4
	volume_envelope 12, 2
	octave 3
	note A#, 2
	volume_envelope 12, 1
	octave 4
	note D#, 1
	note D#, 1
	note D#, 1
	note D#, 1
Music_UnovaWildBattleNight_Ch1_loop:
	volume_envelope 12, 7
	octave 3
	note F_, 8
	note D#, 4
	note F_, 4
	note G_, 6
	note F_, 4
	volume_envelope 12, 2
	note G_, 2
	note A_, 2
	rest 2
	volume_envelope 12, 7
	note A#, 6
	note A_, 6
	volume_envelope 12, 2
	note G_, 2
	rest 2
	note G_, 2
	note A#, 2
	rest 2
	volume_envelope 12, 7
	note D#, 4
	note C_, 2
	octave 2
	note A#, 2
	note G_, 2
	note F_, 2
	note A_, 2
	octave 3
	note C_, 2
	octave 2
	note A_, 4
	note A#, 2
	note A_, 2
	note A#, 2
	note G_, 2
	note A#, 2
	octave 3
	note D#, 2
	octave 2
	note A#, 4
	octave 3
	note C_, 2
	octave 2
	note A#, 2
	octave 3
	note C_, 2
	note G_, 2
	note D#, 2
	note A#, 2
	note G_, 4
	note D#, 2
	note G_, 2
	note A#, 2
	note D#, 2
	octave 2
	note A#, 4
	octave 3
	note G_, 6
	note D#, 4
	note F_, 2
	note C_, 2
	note F_, 2
	note A_, 2
	note F_, 2
	octave 2
	note A_, 2
	note F_, 2
	note A_, 2
	note F_, 2
	octave 3
	note C_, 2
	note F_, 2
	note C_, 2
	octave 2
	note A_, 2
	note F_, 2
	octave 3
	note C_, 2
	note D#, 1
	note F_, 1
	note G_, 2
	note D#, 2
	note A#, 2
	note G_, 2
	note A#, 2
	note F_, 2
	octave 4
	note C_, 2
	octave 3
	note A_, 2
	note G_, 2
	note D#, 4
	note A#, 6
	note G_, 4
	note F_, 2
	note C_, 2
	note A_, 2
	note F_, 4
	note C_, 2
	note F_, 2
	note A_, 2
	note F_, 2
	note A_, 6
	note C_, 4
	note F_, 4
	octave 2
	note D#, 2
	note G_, 2
	note A#, 2
	octave 3
	note D#, 4
	octave 2
	note A#, 2
	note G_, 2
	note A#, 2
	note G_, 2
	note A_, 2
	octave 3
	note C_, 2
	note D#, 2
	note G_, 2
	note D#, 2
	note C_, 2
	note D#, 2
	octave 2
	note F_, 2
	note A_, 2
	octave 3
	note C_, 2
	note F_, 4
	note C_, 2
	octave 2
	note A_, 2
	octave 3
	note C_, 2
	octave 2
	note A_, 2
	octave 3
	note C_, 2
	note D#, 2
	note F_, 2
	note A_, 2
	note F_, 2
	note D#, 2
	note F_, 2
	note D#, 6
	octave 2
	note A#, 6
	note A#, 2
	octave 3
	note D#, 2
	note G_, 4
	note F_, 4
	note D#, 4
	note G_, 4
	volume_envelope 12, 8
	note F_, 8
	volume_envelope 12, 7
	note F_, 8
	note A_, 10
	note F_, 2
	note C_, 2
	note F_, 2
	octave 2
	note D#, 2
	note G_, 2
	note A#, 2
	octave 3
	note D#, 4
	octave 2
	note A#, 2
	note G_, 2
	note A#, 2
	note G_, 2
	note A_, 2
	octave 3
	note C_, 2
	note D#, 2
	note G_, 2
	note D#, 2
	note C_, 2
	note D#, 2
	octave 2
	note F_, 2
	note A_, 2
	octave 3
	note C_, 2
	note F_, 4
	note C_, 2
	octave 2
	note A_, 2
	octave 3
	note C_, 2
	octave 2
	note A_, 2
	octave 3
	note C_, 2
	note D#, 2
	note F_, 2
	note A_, 2
	note F_, 2
	note D#, 2
	note F_, 2
	octave 2
	note D#, 2
	note G_, 2
	note A#, 2
	octave 3
	note D#, 4
	octave 2
	note A#, 2
	note G_, 2
	note A#, 2
	note D#, 2
	note G_, 2
	note A#, 2
	octave 3
	note D_, 2
	note D#, 2
	note D_, 2
	octave 2
	note A#, 2
	octave 3
	note D_, 2
	octave 2
	note F_, 2
	note A_, 2
	octave 3
	note C_, 2
	note F_, 4
	note C_, 2
	octave 2
	note A_, 2
	octave 3
	note C_, 2
	octave 2
	note F_, 2
	note A_, 2
	octave 3
	note C_, 2
	note F_, 2
	note A_, 2
	octave 4
	note C_, 2
	note F_, 2
	note C_, 2
	volume_envelope 12, 3
	note D#, 3
	note C_, 3
	note D#, 2
	note C_, 4
	note D#, 4
	volume_envelope 12, 7
	note C_, 2
	octave 3
	note D#, 2
	note G#, 2
	octave 4
	note C_, 2
	note D#, 2
	note C_, 2
	octave 3
	note D#, 2
	note G#, 2
	volume_envelope 12, 3
	note A_, 3
	note F_, 3
	note A_, 2
	note F_, 4
	note A_, 4
	volume_envelope 12, 7
	note F_, 2
	note C_, 2
	note F_, 2
	octave 4
	note C_, 2
	note F_, 2
	note C_, 2
	octave 3
	note F_, 2
	octave 4
	note C_, 2
	volume_envelope 12, 3
	note D#, 3
	note C_, 3
	note D#, 2
	note C_, 4
	note D#, 4
	volume_envelope 12, 7
	note C_, 2
	octave 3
	note D#, 2
	note G#, 2
	octave 4
	note C_, 2
	note D#, 2
	note C_, 2
	octave 3
	note G#, 2
	octave 4
	note C_, 2
	volume_envelope 12, 3
	note D_, 3
	octave 3
	note A#, 3
	volume_envelope 12, 7
	octave 4
	note D_, 2
	octave 3
	note A#, 2
	note F_, 2
	octave 4
	note F_, 2
	note D_, 2
	octave 3
	note A#, 2
	octave 4
	note D_, 2
	note F_, 2
	note A#, 2
	note D_, 2
	note F_, 2
	note A#, 2
	octave 5
	note D_, 2
	volume_envelope 12, 2
	octave 3
	note A#, 2
	rest 4
	note F_, 2
	rest 4
	note A#, 2
	rest 2
	note G#, 2
	rest 2
	note A_, 2
	rest 2
	volume_envelope 12, 3
	note A#, 4
	volume_envelope 12, 7
	octave 2
	note A#, 2
	note B_, 2
	sound_jump Music_UnovaWildBattleNight_Ch1_loop

Music_UnovaWildBattleNight_Ch2:
        pitch_offset 2
	duty_cycle 3
	octave 3
	note_type 12, 12, 7
	note A#, 1
	note A_, 1
	note G#, 1
	note A_, 1
	note G#, 1
	note G_, 1
	note G#, 1
	note G_, 1
	note F#, 1
	note G_, 1
	note F#, 1
	note F_, 1
	note F#, 1
	note F_, 1
	note E_, 1
	note F_, 1
	note E_, 1
	note D#, 1
	note E_, 1
	note D#, 1
	note D_, 1
	note D#, 1
	note D_, 1
	note C#, 1
	note D_, 1
	note C#, 1
	note C_, 1
	note C#, 1
	note C_, 1
	octave 2
	note B_, 1
	octave 3
	note C_, 1
	octave 2
	note B_, 1
	volume_envelope 12, 3
	octave 4
	note C_, 2
	rest 4
	duty_cycle 2
	octave 3
	note G_, 2
	rest 4
	octave 4
	note C_, 2
	rest 2
	octave 3
	note A#, 2
	rest 4
	note A_, 2
	rest 2
	volume_envelope 12, 7
	octave 4
	note C_, 6
	volume_envelope 12, 4
	octave 3
	note C_, 4
	rest 2
	volume_envelope 12, 7
	note C_, 1
	note A#, 1
	octave 4
	note C_, 8
	volume_envelope 12, 3
	octave 3
	note C_, 2
	rest 2
	note C_, 2
	volume_envelope 12, 7
	octave 4
	note C_, 4
	volume_envelope 12, 3
	octave 3
	note C_, 2
	volume_envelope 12, 1
	note C_, 1
	note C_, 1
	note C_, 1
	note C_, 1
	volume_envelope 12, 2
	octave 4
	note G_, 2
	rest 4
	octave 5
	note C_, 2
	rest 4
	octave 4
	note G_, 2
	rest 2
	octave 5
	note D#, 2
	rest 4
	note C#, 2
	rest 2
	volume_envelope 12, 7
	note D#, 1
	note C#, 1
	note C_, 4
	volume_envelope 12, 4
	octave 3
	note D#, 4
	rest 2
	volume_envelope 12, 7
	note D#, 1
	octave 4
	note C_, 1
	note D#, 8
	volume_envelope 12, 3
	octave 3
	note G_, 2
	note F_, 2
	note G_, 2
	octave 4
	note G_, 2
	rest 2
	note G_, 2
	volume_envelope 12, 1
	note G_, 1
	note G_, 1
	note G_, 1
	note G_, 1
Music_UnovaWildBattleNight_Ch2_loop:
	volume_envelope 12, 7
	note C_, 6
	note F_, 6
	note G_, 4
	note A#, 6
	note A_, 4
	note G_, 2
	note F_, 2
	rest 2
	note D#, 12
	volume_envelope 12, 2
	note G_, 2
	rest 2
	volume_envelope 12, 7
	note D#, 2
	volume_envelope 12, 2
	note G_, 2
	rest 2
	volume_envelope 12, 7
	note A#, 10
	note A_, 6
	note G_, 6
	volume_envelope 12, 2
	note F_, 2
	rest 2
	volume_envelope 12, 7
	note A#, 6
	note A_, 6
	volume_envelope 12, 2
	note G_, 2
	rest 2
	volume_envelope 12, 7
	octave 5
	note D#, 8
	note D_, 8
	octave 4
	note G_, 6
	note A#, 6
	note G_, 4
	volume_envelope 12, 8
	note A_, 8
	volume_envelope 12, 7
	vibrato 0, 2, 3
	note A_, 8
	volume_envelope 12, 8
	vibrato 0, 0, 0
	octave 5
	note C_, 4
	volume_envelope 12, 7
	vibrato 0, 2, 4
	note C_, 8
	vibrato 0, 0, 0
	octave 4
	note F_, 1
	note G_, 1
	note A#, 1
	octave 5
	note C_, 1
	note D#, 8
	note F_, 8
	note D#, 6
	note D_, 6
	octave 4
	note A#, 4
	volume_envelope 12, 8
	octave 5
	note C_, 8
	volume_envelope 12, 7
	vibrato 0, 2, 4
	note C_, 6
	vibrato 0, 0, 0
	note D#, 1
	note E_, 1
	volume_envelope 12, 8
	note F_, 8
	volume_envelope 12, 7
	vibrato 0, 2, 4
	note F_, 8
	volume_envelope 12, 2
	vibrato 0, 0, 0
	octave 4
	note D#, 2
	note F_, 2
	rest 2
	volume_envelope 12, 7
	note G_, 10
	note A#, 6
	note A_, 1
	note G#, 1
	note G_, 8
	volume_envelope 12, 2
	note F_, 2
	note G_, 2
	rest 2
	volume_envelope 12, 7
	note A_, 6
	note F_, 4
	octave 5
	note C_, 6
	octave 4
	note B_, 1
	note A#, 1
	note A_, 8
	volume_envelope 12, 2
	note G_, 2
	note A_, 2
	rest 2
	volume_envelope 12, 7
	note A#, 6
	note G_, 4
	octave 5
	note D#, 6
	note D_, 6
	octave 4
	note A#, 4
	volume_envelope 12, 8
	note A_, 8
	volume_envelope 12, 7
	vibrato 0, 2, 4
	note A_, 6
	vibrato 0, 0, 0
	note A#, 1
	note B_, 1
	volume_envelope 12, 8
	octave 5
	note C_, 8
	volume_envelope 12, 7
	vibrato 0, 2, 4
	note C_, 8
	volume_envelope 12, 2
	vibrato 0, 0, 0
	octave 4
	note D#, 2
	note F_, 2
	rest 2
	volume_envelope 12, 7
	note G_, 10
	note A#, 6
	note A_, 1
	note G#, 1
	note G_, 8
	volume_envelope 12, 2
	note F_, 2
	note G_, 2
	rest 2
	volume_envelope 12, 7
	note A_, 6
	note F_, 4
	octave 5
	note C_, 6
	octave 4
	note B_, 1
	note A#, 1
	note A_, 8
	volume_envelope 12, 2
	note G_, 2
	note A_, 2
	rest 2
	volume_envelope 12, 7
	note A#, 6
	note G_, 4
	octave 5
	note D#, 4
	note D_, 4
	note C_, 4
	octave 4
	note A#, 4
	volume_envelope 12, 8
	octave 5
	note C_, 8
	volume_envelope 12, 7
	vibrato 0, 2, 4
	note C_, 6
	vibrato 0, 0, 0
	note D#, 1
	note E_, 1
	volume_envelope 5, -7
	note F_, 6
	volume_envelope 12, 8
	vibrato 0, 2, 4
	note F_, 8
	volume_envelope 12, 7
	vibrato 0, 0, 0
	octave 4
	note G_, 2
	volume_envelope 12, 8
	note G#, 16
	volume_envelope 12, 7
	vibrato 0, 2, 4
	note G#, 14
	vibrato 0, 0, 0
	note G_, 2
	volume_envelope 12, 8
	note F_, 16
	volume_envelope 12, 7
	vibrato 0, 2, 4
	note F_, 14
	vibrato 0, 0, 0
	note G_, 2
	volume_envelope 12, 8
	note G#, 16
	volume_envelope 12, 7
	vibrato 0, 2, 4
	note G#, 14
	vibrato 0, 0, 0
	note A_, 2
	volume_envelope 12, 8
	note A#, 16
	volume_envelope 12, 7
	vibrato 0, 2, 4
	note A#, 16
	volume_envelope 9, 3
	vibrato 0, 0, 0
	octave 5
	note D_, 4
	rest 2
	note D_, 4
	rest 2
	volume_envelope 9, 8
	note D_, 4
	volume_envelope 9, 3
	octave 4
	note A#, 4
	rest 2
	note A#, 4
	rest 2
	volume_envelope 9, 8
	note A#, 4
	sound_jump Music_UnovaWildBattleNight_Ch2_loop

Music_UnovaWildBattleNight_Ch3:
	duty_cycle 3
	octave 4
	note_type 12, 1, 3
	note G_, 2
	octave 3
	note G_, 2
	octave 4
	note_type 9, 1, 3
	note C#, 2
	note D_, 2
	note_type 12, 1, 3
	note D#, 1
	note_type 9, 1, 3
	note D_, 2
	note D#, 2
	note_type 12, 1, 3
	note E_, 1
	note_type 9, 1, 3
	note D#, 2
	note E_, 2
	note_type 12, 1, 3
	note F_, 1
	note_type 9, 1, 3
	note E_, 2
	note F_, 2
	note_type 12, 1, 3
	note F#, 1
	note_type 9, 1, 3
	note F_, 2
	note F#, 2
	note_type 12, 1, 3
	note G_, 1
	note_type 9, 1, 3
	note F#, 2
	note G_, 2
	note_type 12, 1, 3
	note G#, 1
	note_type 9, 1, 3
	note G_, 2
	note G#, 2
	note_type 12, 1, 3
	note A_, 1
	note C_, 2
	note C#, 4
	note C_, 4
	note F#, 2
	note F_, 2
	note D#, 2
	note C_, 2
	note F#, 4
	note F_, 4
	note D#, 2
	note F_, 2
	note D#, 2
	note C_, 2
	note C#, 4
	note C_, 4
	note F#, 2
	note F_, 2
	note D#, 2
	note C_, 2
	note F#, 4
	note F_, 4
	note D#, 2
	note F_, 2
	note D#, 2
	note C_, 2
	note C#, 4
	note C_, 4
	note F#, 2
	note F_, 2
	note D#, 2
	note C_, 2
	note F#, 4
	note F_, 4
	note D#, 2
	note F_, 2
	note D#, 2
	note C_, 2
	note C#, 4
	note C_, 4
	note F#, 2
	note F_, 2
	note D#, 2
	note C_, 2
	note A#, 4
	note G_, 4
	note D#, 2
	rest 4
Music_UnovaWildBattleNight_Ch3_loop:
        note_type 12, 1, 3
	note C_, 2
	note G_, 2
	note C_, 2
	note G_, 2
	note C_, 2
	note G_, 2
	note C_, 2
	note G_, 2
	note C_, 2
	note G_, 2
	note C_, 2
	note G_, 2
	note C_, 2
	note G_, 2
	note C_, 2
	note G_, 2
	note D#, 2
	note G_, 2
	note D#, 2
	note G_, 2
	note D#, 2
	note G_, 2
	note D#, 2
	note G_, 2
	note D#, 2
	note G_, 2
	note D#, 2
	note G_, 2
	note D#, 2
	note G_, 2
	note D#, 2
	note G_, 2
	note F_, 2
	note A_, 2
	note F_, 2
	note A_, 2
	note F_, 2
	note A_, 2
	note F_, 2
	note A_, 2
	note D#, 2
	note G_, 2
	note D#, 2
	note G_, 2
	note D#, 2
	note G_, 2
	note D#, 2
	note G_, 2
	note C_, 2
	note G_, 2
	octave 5
	note C_, 2
	octave 4
	note G_, 2
	note C_, 2
	octave 5
	note C_, 2
	octave 4
	note C_, 2
	note G_, 2
	note D#, 2
	note G_, 2
	note D#, 2
	note G_, 2
	note D#, 2
	note G_, 2
	note D#, 2
	note G_, 2
	note F_, 2
	note A_, 2
	note F_, 2
	note A_, 2
	note F_, 2
	note A_, 2
	note F_, 2
	note A_, 2
	note F_, 2
	octave 5
	note C_, 2
	octave 4
	note F_, 2
	octave 5
	note C_, 2
	octave 4
	note F_, 2
	octave 5
	note C_, 2
	octave 4
	note F_, 2
	note G_, 2
	note C_, 2
	note G_, 2
	octave 5
	note C_, 2
	octave 4
	note G_, 2
	note A_, 2
	octave 5
	note C_, 2
	octave 4
	note C_, 2
	note F_, 2
	note D#, 2
	note G_, 2
	note D#, 2
	note G_, 2
	note D#, 2
	note G_, 2
	note D#, 2
	note G_, 2
	note F_, 2
	note A_, 2
	note F_, 2
	note A_, 2
	note F_, 2
	note A_, 2
	note F_, 2
	note A_, 2
	note F_, 2
	note A_, 2
	note F_, 2
	note A_, 2
	note F_, 2
	note A_, 2
	note F_, 2
	note A_, 2
	note D#, 2
	note G_, 2
	note D#, 2
	note G_, 2
	note D#, 2
	note G_, 2
	note F#, 2
	note G_, 2
	note D#, 2
	note G_, 2
	note D#, 2
	note G_, 2
	note D#, 2
	note G_, 2
	note F#, 2
	note G_, 2
	note F_, 2
	note A_, 2
	note F_, 2
	note A_, 2
	note F_, 2
	note A_, 2
	note F_, 2
	note A_, 2
	note F_, 2
	note A_, 2
	note F_, 2
	note A_, 2
	note F_, 2
	note A_, 2
	note F_, 2
	note A_, 2
	note D#, 2
	note G_, 2
	note D#, 2
	note G_, 2
	note D#, 2
	note G_, 2
	note D#, 2
	note G_, 2
	note D#, 2
	note G_, 2
	note D#, 2
	note G_, 2
	note D#, 2
	note G_, 2
	note D#, 2
	note G_, 2
	note F_, 2
	note A_, 2
	note F_, 2
	note A_, 2
	note F_, 2
	note A_, 2
	note F_, 2
	note A_, 2
	note F_, 2
	note C_, 2
	note F_, 2
	note C_, 2
	note F_, 2
	note C_, 2
	note F_, 2
	note C_, 2
	note D#, 2
	note G_, 2
	note D#, 2
	note G_, 2
	note D#, 2
	note G_, 2
	note D#, 2
	note G_, 2
	note D#, 2
	note G_, 2
	note D#, 2
	note G_, 2
	note D#, 2
	note G_, 2
	note D#, 2
	note G_, 2
	note F_, 2
	note A_, 2
	note F_, 2
	note A_, 2
	note F_, 2
	note A_, 2
	note F_, 2
	note A_, 2
	note F_, 2
	note A_, 2
	note F_, 2
	note A_, 2
	note F_, 2
	note A_, 2
	note F_, 2
	note A_, 2
	note D#, 2
	note G_, 2
	note D#, 2
	note G_, 2
	note D#, 2
	note G_, 2
	note D#, 2
	note G_, 2
	note D#, 2
	note G_, 2
	note D_, 2
	note A_, 2
	note C_, 2
	note A#, 2
	octave 3
	note A#, 2
	octave 5
	note C_, 2
	octave 4
	note C_, 2
	note F_, 2
	note A_, 2
	note C_, 2
	note F_, 2
	note A_, 2
	note F_, 2
	note A_, 2
	note C_, 2
	octave 5
	note C_, 4
	octave 4
	note A_, 4
	note F_, 2
	note C_, 4
	note D#, 2
	note G#, 2
	note D#, 2
	note G#, 2
	note D#, 2
	note G#, 2
	note D#, 2
	note G#, 2
	note D#, 2
	note A#, 4
	note G#, 4
	note D#, 2
	note G#, 2
	note D#, 2
	note C_, 2
	note F_, 2
	note C_, 2
	note F_, 2
	note C_, 2
	note F_, 2
	note C_, 2
	note F_, 2
	note C_, 2
	note G_, 4
	note F_, 4
	note C_, 2
	note D#, 2
	note F_, 2
	note D#, 2
	note G#, 2
	note D#, 2
	note G#, 2
	note D#, 2
	note G#, 2
	note D#, 2
	note G#, 2
	note D#, 2
	octave 5
	note C_, 4
	octave 4
	note A#, 4
	note G#, 2
	note D#, 2
	note G#, 2
	note F_, 2
	note A#, 2
	note F_, 2
	note A#, 2
	note F_, 2
	note A#, 2
	note F_, 2
	note A#, 2
	note F_, 2
	octave 5
	note F_, 4
	note D_, 4
	octave 4
	note A#, 2
	octave 5
	note D_, 2
	note F_, 2
	octave 4
	note F_, 2
	note A#, 2
	note F_, 2
	note A#, 2
	note F_, 2
	note A#, 2
	note F_, 2
	note A#, 2
	octave 3
	note A#, 2
	octave 4
	note F_, 4
	note A#, 4
	note D_, 2
	octave 3
	note A#, 2
	octave 4
	note D_, 2
	sound_jump Music_UnovaWildBattleNight_Ch3_loop

