Music_VirbankCity:
	channel_count 4
	channel 1, Music_VirbankCity_Ch1
	channel 2, Music_VirbankCity_Ch2
	channel 3, Music_VirbankCity_Ch3
	channel 4, Music_VirbankCity_Ch4


Music_VirbankCity_Ch1:
	tempo 192
	duty_cycle $0
	vibrato 18, 4, 4
	pitch_offset $0001
	note_type 12, 8, 0
	octave 3
	note D#, 2
	volume_envelope 8, 6
	note D#, 7
	volume_envelope 8, 0
	note F_, 2
	volume_envelope 8, 6
	note F_, 9
	volume_envelope 8, 0
	octave 2
	note A_, 1
	note A#, 9
	volume_envelope 6, 2
	octave 1
	note A#, 2
	volume_envelope 8, 3
	octave 3
	note G_, 1
	volume_envelope 6, 2
	octave 2
	note G_, 2
	volume_envelope 8, 3
	octave 3
	note F#, 1
	volume_envelope 6, 2
	octave 2
	note F#, 2
	volume_envelope 8, 3
	octave 3
	note F_, 1
	volume_envelope 6, 2
	octave 2
	note F_, 2
	volume_envelope 8, 3
	octave 3
	note C_, 1
	octave 2
	note A#, 2
	volume_envelope 8, 7
	octave 3
	note D#, 4 ;
	volume_envelope 8, 0
	octave 3
	note D#, 2
	volume_envelope 8, 6
	note D#, 7
	volume_envelope 8, 0
	note F_, 2
	volume_envelope 8, 6
	note F_, 8
	note_type 4, 8, 0
	octave 2
	rest 2
	note G_, 1
	note A_, 1
	note B_, 1
	octave 3
	note C_, 1
	note_type 12, 8, 0
	octave 3
	note D_, 9
	volume_envelope 6, 2
	octave 2
	note G_, 2
	volume_envelope 8, 3
	octave 3
	note A#, 1
	volume_envelope 6, 2
	octave 2
	note A#, 2
	volume_envelope 8, 3
	octave 3
	note A_, 1
	volume_envelope 6, 2
	octave 2
	note A_, 2
	volume_envelope 8, 3
	octave 3
	note G#, 1
	volume_envelope 6, 2
	octave 2
	note G#, 2
	volume_envelope 8, 3
	octave 3
	note G_, 1
	note A#, 2
	volume_envelope 8, 7
	octave 4
	note C_, 4
	octave 3
	note G_, 5
	volume_envelope 8, 2
	octave 2
	note G#, 1
	octave 3
	volume_envelope 8, 4
	note G_, 3
	volume_envelope 8, 2
	note F#, 2
	note F#, 3
	duty_cycle $1
	volume_envelope 7, 4
	note G_, 2
	volume_envelope 7, 2
	note G_, 2
	volume_envelope 7, 4
	note B_, 2
	volume_envelope 7, 2
	note A_, 1
	volume_envelope 7, 4
	note G_, 2
	note B_, 1
	duty_cycle $0
	volume_envelope 8, 7
	note F_, 5
	volume_envelope 8, 2
	octave 2
	note G_, 1
	octave 3
	volume_envelope 8, 4
	note F_, 3
	volume_envelope 8, 3
	note E_, 5
	duty_cycle $1
	volume_envelope 7, 4
	note B_, 4
	octave 4
	note C#, 2
	volume_envelope 7, 2
	octave 3
	note A#, 1
	volume_envelope 7, 4
	note G#, 2
	volume_envelope 7, 4
	note B_, 1
	duty_cycle $0
	note_type 4, 6, 0
	note D#, 6
	volume_envelope 7, 0
	note E_, 1
	note F_, 1
	note F#, 1
	note_type 12, 8, 4
	note G_, 5
	note F#, 1
	volume_envelope 10, 2
	note F_, 15
	volume_envelope 8, 5
	note D_, 5
	note D_, 4
	volume_envelope 8, 7
	note C_, 11
	volume_envelope 8, 5
	octave 2
	note B_, 2
	octave 3
	note C_, 2
	note D_, 5
	note D_, 4
	volume_envelope 8, 2
	note C_, 2
	volume_envelope 8, 7
	note C_, 13
	volume_envelope 8, 5
	note C_, 5
	volume_envelope 8, 3
	note C_, 1
	volume_envelope 6, 2
	octave 2
	note D#, 2
	note D#, 1
	volume_envelope 8, 5
	octave 3
	note D_, 5
	note D_, 4
	note F_, 2
	note D_, 2
	note C_, 2
	volume_envelope 8, 6
	octave 2
	note A#, 9
	octave 3
	note G#, 2
	volume_envelope 8, 3
	note G_, 1
	volume_envelope 6, 2
	octave 2
	note A#, 2
	volume_envelope 8, 5
	octave 3
	note D#, 3
	note F_, 3
	note D#, 4
	note C_, 5
	volume_envelope 8, 3
	note C_, 1
	volume_envelope 6, 2
	octave 2
	note D_, 2
	note D_, 1
	volume_envelope 8, 5
	note B_, 9
	octave 3
	note D_, 2
	octave 2
	note B_, 2
	note G#, 2
	note_type 6, 8, 5
	octave 3
	note D#, 10
	volume_envelope 8, 3
	note D#, 2
	volume_envelope 6, 2
	octave 2
	note D#, 4
	volume_envelope 8, 0
	octave 3
	note F_, 6
	volume_envelope 5, 0
	note D#, 1
	volume_envelope 3, 0
	note D_, 1
	volume_envelope 8, 5
	note D#, 10
	volume_envelope 8, 3
	note D#, 2
	volume_envelope 6, 2
	octave 2
	note D#, 4
	volume_envelope 8, 0
	octave 3
	note F_, 5
	note F#, 1
	note G_, 1
	note G#, 1
	note_type 12, 8, 5
	note D#, 5
	note D#, 3
	note F_, 2
	note F#, 2
	note G_, 2
	note G_, 1
	rest 9
	sound_jump Music_VirbankCity_Ch1

Music_VirbankCity_Ch2:
	duty_cycle $2
	vibrato 18, 1, 5
	pitch_offset $0001
	note_type 12, 10, 2
	rest 5
	octave 3
	note G_, 1
	volume_envelope 11, 4
	octave 4
	note G#, 3
	note G_, 6
	note F_, 2
	volume_envelope 11, 2
	note D#, 1
	volume_envelope 11, 5
	note F_, 2
	volume_envelope 9, 2
	note C_, 1
	volume_envelope 10, 5
	note D#, 5
	volume_envelope 9, 2
	note C_, 11
	rest 16
	volume_envelope 10, 2
	note C_, 1
	volume_envelope 11, 4
	octave 5
	note C_, 3
	octave 4
	note G_, 6
	note F_, 2
	volume_envelope 8, 2
	note D#, 1
	volume_envelope 11, 5
	note F_, 2
	volume_envelope 9, 2
	octave 3
	note A#, 1
	volume_envelope 11, 5
	octave 4
	note D#, 5
	volume_envelope 10, 2
	note C_, 8
	rest 15
	note_type 2, 7, 0
	octave 3
	note A_, 1
	octave 4
	note C_, 1
	volume_envelope 6, 0
	note E_, 1
	volume_envelope 5, 0
	note F_, 1 
	volume_envelope 4, 0
	note G_, 1
	volume_envelope 3, 0
	note B_, 1
	note_type 12, 12, 5
	octave 5
	note C_, 3
	volume_envelope 10, 2
	octave 4
	note G_, 1
	volume_envelope 11, 4
	note G#, 2
	volume_envelope 10, 2
	note F_, 1
	volume_envelope 11, 4
	note F#, 2
	volume_envelope 10, 2
	note D_, 3
	duty_cycle $1
	volume_envelope 8, 4
	note F#, 2
	volume_envelope 8, 2
	note F#, 2
	volume_envelope 8, 4
	note D_, 2
	volume_envelope 8, 2
	note E_, 1
	volume_envelope 8, 4
	note D_, 2
	note_type 2, 8, 2
	note F#, 16
	duty_cycle $2
	volume_envelope 3, 0
	note F_, 1
	volume_envelope 4, 0
	note G_, 1
	note_type 12, 12, 4
	note A#, 3
	volume_envelope 10, 2
	note G_, 1
	volume_envelope 11, 4
	note G#, 2
	volume_envelope 10, 2
	note E_, 1
	volume_envelope 11, 4
	note F_, 2
	volume_envelope 10, 2
	note C#, 3
	duty_cycle $1
	volume_envelope 8, 4
	note F_, 4
	note C#, 2
	volume_envelope 8, 2
	note D#, 1
	volume_envelope 8, 4
	note C#, 2
	note F_, 3
	duty_cycle $2
	volume_envelope 11, 4
	note G_, 3
	volume_envelope 10, 2
	note D#, 1
	volume_envelope 11, 4
	note F_, 2
	volume_envelope 10, 2
	octave 3
	note A#, 1
	note_type 2, 11, 4
	octave 4
	note D#, 10
	volume_envelope 5, 0
	note D_, 1
	note C_, 1
	octave 3
	volume_envelope 4, 0
	note B_, 1
	note A_, 1
	volume_envelope 3, 0
	note G_, 1
	volume_envelope 3, 4
	note F_, 15
	note_type 12, 11, 5
	octave 3
	note A#, 2
	volume_envelope 11, 5
	octave 4
	note C_, 2
	note D#, 2
	volume_envelope 10, 5
	note F_, 2
	note F#, 2
	volume_envelope 12, 5
	note F_, 5
	volume_envelope 11, 5
	note F_, 4
	volume_envelope 10, 7
	note D#, 15
	note_type 2, 7, 0
	note D#, 2
	volume_envelope 11, 4
	note F_, 16
	note_type 12, 10, 4
	note F#, 2
	note F_, 3
	volume_envelope 10, 2
	note C_, 1
	volume_envelope 10, 7
	note D#, 11
	vibrato 18, 3, 5
	duty_cycle $1
	volume_envelope 9, 4
	note C_, 2
	note D#, 2
	volume_envelope 9, 5
	note A#, 5
	volume_envelope 9, 2
	octave 5
	note C_, 3
	octave 3
	note A#, 1
	volume_envelope 9, 5
	octave 4
	note D#, 5
	note G#, 2
	volume_envelope 9, 3
	note G_, 2
	volume_envelope 9, 5
	note F_, 2
	note D_, 2
	volume_envelope 9, 3
	note D#, 2
	volume_envelope 9, 0
	note A#, 2
	duty_cycle $2
	volume_envelope 7, 5
	octave 3
	note G#, 2
	note G_, 2
	octave 2
	note A#, 3
	octave 3
	note C_, 2
	octave 2
	note A#, 3
	volume_envelope 7, 2
	octave 3
	note F_, 1
	volume_envelope 7, 5
	note D#, 5
	duty_cycle $1
	octave 4
	volume_envelope 9, 4
	note D_, 2
	note D#, 2
	volume_envelope 9, 5
	note G_, 5
	volume_envelope 9, 2
	note G#, 3
	octave 3
	note G_, 1
	volume_envelope 9, 5
	octave 4
	note C_, 5
	note F_, 2
	volume_envelope 9, 3
	note D#, 2
	volume_envelope 9, 5
	note D_, 2
	octave 3
	note B_, 2
	volume_envelope 9, 3
	octave 4
	note C_, 2
	volume_envelope 10, 7
	note G_, 12
	note F#, 12
	note F_, 12
	duty_cycle $2
	volume_envelope 10, 2
	note F_, 2
	note F_, 10
	sound_jump Music_VirbankCity_Ch2

Music_VirbankCity_Ch3:
	note_type 12, 1, 2
	octave 2
	note F_, 8
	note F#, 1
	note G_, 10
	volume_envelope 3, 2
	note G_, 1
	volume_envelope 1, 2
	note G_, 1
	note C_, 12
	octave 1
	note A#, 2
	octave 2
	note D#, 4
	note C_, 5
	note G_, 3
	note C_, 1 ;
	note G#, 8
	note F#, 1
	note G_, 11
	octave 1
	note A#, 1
	octave 2
	note C_, 12
	octave 1
	note A#, 2
	octave 2
	note D#, 4
	note C_, 5
	note G_, 3
	note C_, 1 ;
	note G#, 5
	octave 1
	note G#, 1
	octave 2
	note G#, 3
	note G_, 3
	rest 12
	octave 3
	note C_, 5
	octave 2
	note C_, 1
	octave 3
	note C_, 3
	octave 2
	note B_, 3
	rest 12
	note F_, 3
	octave 1
	note F_, 2
	octave 2
	note F_, 3
	note F#, 1
	note G_, 2
	rest 7
	note G_, 4
	volume_envelope 2, 2
	note F#, 1
	note F_, 1
	volume_envelope 1, 2
	note C_, 9
	octave 1
	note A#, 2
	octave 2
	note D#, 3
	octave 1
	note A#, 1
	octave 2
	note C_, 7
	volume_envelope 2, 2
	octave 1
	note B_, 1
	note A#, 1
	volume_envelope 1, 2
	octave 2
	note C_, 9
	octave 1
	note A#, 2
	octave 2
	note D#, 3
	octave 1
	note A#, 1
	octave 2
	note C_, 4
	volume_envelope 3, 2
	note C_, 1
	volume_envelope 1, 2
	note C_, 2
	octave 1
	note A#, 2 ;
	note G#, 4
	volume_envelope 3, 2
	note G#, 1
	volume_envelope 1, 2
	note G#, 4
	note A#, 10
	volume_envelope 3, 2
	note A#, 1
	volume_envelope 1, 2
	note A#, 3
	volume_envelope 3, 2
	note A#, 1
	volume_envelope 1, 2
	octave 2
	note D#, 4
	volume_envelope 3, 2
	note D#, 1
	volume_envelope 1, 2
	note D#, 4
	octave 1
	note D#, 2
	octave 2
	note D#, 4
	octave 1
	note A#, 5
	note D#, 2
	octave 2
	note D#, 2
	note D_, 4
	volume_envelope 3, 2
	note D_, 1
	volume_envelope 1, 2
	note D_, 4
	octave 1
	note G_, 11
	note_type 6, 1, 2
	note B_, 8
	octave 2
	note C_, 6
	octave 1
	note B_, 1
	note A#, 1
	note A_, 1
	note G#, 1
	octave 2
	note C_, 14
	octave 1
	note A#, 6
	note A_, 1
	note G#, 1
	note G_, 1
	note F#, 1
	note_type 6, 1, 2
	note A#, 14
	note G#, 6
	note D#, 4
	note G#, 6
	octave 2
	note D#, 4
	note G#, 4
	note G_, 3
	volume_envelope 3, 2
	note G_, 1
	volume_envelope 1, 2
	note G_, 2
	rest 10
	note G_, 5
	note F_, 1
	note D#, 1
	note C_, 1
	sound_jump Music_VirbankCity_Ch3

Music_VirbankCity_Ch4:
	toggle_noise $3
	drum_speed 12
Music_VirbankCity_Ch4_loop_main:
Music_VirbankCity_Ch4_loop_1:
	sound_call Music_VirbankCity_Ch4_branch_1
	sound_call Music_VirbankCity_Ch4_branch_2
	sound_loop 5, Music_VirbankCity_Ch4_loop_1
	sound_call Music_VirbankCity_Ch4_branch_1
	drum_note 1, 2
	drum_note 4, 2
	drum_note 3, 2
	drum_note 1, 2
	drum_note 7, 1
	drum_note 1, 2
	drum_note 3, 1
	sound_call Music_VirbankCity_Ch4_branch_1
	sound_call Music_VirbankCity_Ch4_branch_3
	sound_call Music_VirbankCity_Ch4_branch_1
	sound_call Music_VirbankCity_Ch4_branch_2
	sound_call Music_VirbankCity_Ch4_branch_1
	sound_call Music_VirbankCity_Ch4_branch_3
Music_VirbankCity_Ch4_loop_2:
	sound_call Music_VirbankCity_Ch4_branch_1
	sound_call Music_VirbankCity_Ch4_branch_2
	sound_loop 4, Music_VirbankCity_Ch4_loop_2
	drum_note 4, 2
	drum_note 2, 1
	drum_note 3, 3
	drum_note 1, 2
	drum_note 1, 2
	drum_note 4, 2
	drum_note 1, 2
	drum_note 1, 3
	drum_note 1, 1
	drum_note 4, 2
	drum_note 12, 3
	drum_note 3, 1
	sound_jump Music_VirbankCity_Ch4_loop_main

Music_VirbankCity_Ch4_branch_1:
	drum_note 4, 2
	drum_note 2, 1
	drum_note 3, 3
	drum_note 1, 2
	drum_note 2, 1
	drum_note 3, 2
	drum_note 4, 1
	sound_ret

Music_VirbankCity_Ch4_branch_2:
	drum_note 4, 2
	drum_note 2, 1
	drum_note 3, 3
	drum_note 1, 2
	drum_note 2, 1
	drum_note 12, 3
	sound_ret

Music_VirbankCity_Ch4_branch_3:
	drum_note 4, 2
	drum_note 2, 1
	drum_note 3, 3
	drum_note 1, 2
	drum_note 1, 2
	drum_note 12, 2
	sound_ret
	